<?xml version="1.0" encoding="utf-8" standalone="no"?>
<!DOCTYPE svg PUBLIC "-//W3C//DTD SVG 1.1//EN"
  "http://www.w3.org/Graphics/SVG/1.1/DTD/svg11.dtd">
<!-- Created with matplotlib (https://matplotlib.org/) -->
<svg height="288pt" version="1.1" viewBox="0 0 432 288" width="432pt" xmlns="http://www.w3.org/2000/svg" xmlns:xlink="http://www.w3.org/1999/xlink">
 <defs>
  <style type="text/css">
*{stroke-linecap:butt;stroke-linejoin:round;}
  </style>
 </defs>
 <g id="figure_1">
  <g id="patch_1">
   <path d="M 0 288 
L 432 288 
L 432 0 
L 0 0 
z
" style="fill:#ffffff;"/>
  </g>
  <g id="axes_1">
   <g id="patch_2">
    <path d="M 54 252 
L 388.8 252 
L 388.8 34.56 
L 54 34.56 
z
" style="fill:#ffffff;"/>
   </g>
   <g id="PathCollection_1">
    <defs>
     <path d="M 0 3 
C 0.795609 3 1.55874 2.683901 2.12132 2.12132 
C 2.683901 1.55874 3 0.795609 3 0 
C 3 -0.795609 2.683901 -1.55874 2.12132 -2.12132 
C 1.55874 -2.683901 0.795609 -3 0 -3 
C -0.795609 -3 -1.55874 -2.683901 -2.12132 -2.12132 
C -2.683901 -1.55874 -3 -0.795609 -3 0 
C -3 0.795609 -2.683901 1.55874 -2.12132 2.12132 
C -1.55874 2.683901 -0.795609 3 0 3 
z
" id="mfcd7a0865f" style="stroke:#ff0000;"/>
    </defs>
    <g clip-path="url(#p7af18e8ba8)">
     <use style="fill:#ff0000;stroke:#ff0000;" x="92.642803" xlink:href="#mfcd7a0865f" y="123.505453"/>
     <use style="fill:#ff0000;stroke:#ff0000;" x="91.342552" xlink:href="#mfcd7a0865f" y="160.54688"/>
     <use style="fill:#ff0000;stroke:#ff0000;" x="83.768362" xlink:href="#mfcd7a0865f" y="158.155164"/>
     <use style="fill:#ff0000;stroke:#ff0000;" x="89.990965" xlink:href="#mfcd7a0865f" y="171.090568"/>
     <use style="fill:#ff0000;stroke:#ff0000;" x="90.711192" xlink:href="#mfcd7a0865f" y="122.956451"/>
     <use style="fill:#ff0000;stroke:#ff0000;" x="110.111677" xlink:href="#mfcd7a0865f" y="92.020651"/>
     <use style="fill:#ff0000;stroke:#ff0000;" x="86.733635" xlink:href="#mfcd7a0865f" y="154.014627"/>
     <use style="fill:#ff0000;stroke:#ff0000;" x="95.154437" xlink:href="#mfcd7a0865f" y="135.147145"/>
     <use style="fill:#ff0000;stroke:#ff0000;" x="83.88133" xlink:href="#mfcd7a0865f" y="190.492812"/>
     <use style="fill:#ff0000;stroke:#ff0000;" x="93.135326" xlink:href="#mfcd7a0865f" y="155.828861"/>
     <use style="fill:#ff0000;stroke:#ff0000;" x="100.317909" xlink:href="#mfcd7a0865f" y="99.203721"/>
     <use style="fill:#ff0000;stroke:#ff0000;" x="95.73446" xlink:href="#mfcd7a0865f" y="146.239834"/>
     <use style="fill:#ff0000;stroke:#ff0000;" x="88.225025" xlink:href="#mfcd7a0865f" y="164.883127"/>
     <use style="fill:#ff0000;stroke:#ff0000;" x="69.264761" xlink:href="#mfcd7a0865f" y="185.49943"/>
     <use style="fill:#ff0000;stroke:#ff0000;" x="94.348478" xlink:href="#mfcd7a0865f" y="59.379159"/>
     <use style="fill:#ff0000;stroke:#ff0000;" x="105.555464" xlink:href="#mfcd7a0865f" y="47.492309"/>
     <use style="fill:#ff0000;stroke:#ff0000;" x="95.267806" xlink:href="#mfcd7a0865f" y="86.845799"/>
     <use style="fill:#ff0000;stroke:#ff0000;" x="94.194857" xlink:href="#mfcd7a0865f" y="124.068695"/>
     <use style="fill:#ff0000;stroke:#ff0000;" x="113.622177" xlink:href="#mfcd7a0865f" y="82.207434"/>
     <use style="fill:#ff0000;stroke:#ff0000;" x="96.807409" xlink:href="#mfcd7a0865f" y="109.016938"/>
     <use style="fill:#ff0000;stroke:#ff0000;" x="108.838261" xlink:href="#mfcd7a0865f" y="118.136617"/>
     <use style="fill:#ff0000;stroke:#ff0000;" x="98.725602" xlink:href="#mfcd7a0865f" y="115.02867"/>
     <use style="fill:#ff0000;stroke:#ff0000;" x="69.605432" xlink:href="#mfcd7a0865f" y="137.379553"/>
     <use style="fill:#ff0000;stroke:#ff0000;" x="109.164148" xlink:href="#mfcd7a0865f" y="139.973298"/>
     <use style="fill:#ff0000;stroke:#ff0000;" x="106.867364" xlink:href="#mfcd7a0865f" y="150.120973"/>
     <use style="fill:#ff0000;stroke:#ff0000;" x="100.32996" xlink:href="#mfcd7a0865f" y="158.234818"/>
     <use style="fill:#ff0000;stroke:#ff0000;" x="101.969514" xlink:href="#mfcd7a0865f" y="137.567341"/>
     <use style="fill:#ff0000;stroke:#ff0000;" x="97.919242" xlink:href="#mfcd7a0865f" y="119.899678"/>
     <use style="fill:#ff0000;stroke:#ff0000;" x="94.574413" xlink:href="#mfcd7a0865f" y="124.054455"/>
     <use style="fill:#ff0000;stroke:#ff0000;" x="94.901266" xlink:href="#mfcd7a0865f" y="162.036303"/>
     <use style="fill:#ff0000;stroke:#ff0000;" x="96.832877" xlink:href="#mfcd7a0865f" y="162.585304"/>
     <use style="fill:#ff0000;stroke:#ff0000;" x="104.520435" xlink:href="#mfcd7a0865f" y="116.675675"/>
     <use style="fill:#ff0000;stroke:#ff0000;" x="94.170355" xlink:href="#mfcd7a0865f" y="86.645495"/>
     <use style="fill:#ff0000;stroke:#ff0000;" x="96.34172" xlink:href="#mfcd7a0865f" y="65.768069"/>
     <use style="fill:#ff0000;stroke:#ff0000;" x="94.687381" xlink:href="#mfcd7a0865f" y="156.392103"/>
     <use style="fill:#ff0000;stroke:#ff0000;" x="84.753811" xlink:href="#mfcd7a0865f" y="142.162986"/>
     <use style="fill:#ff0000;stroke:#ff0000;" x="95.193723" xlink:href="#mfcd7a0865f" y="102.613787"/>
     <use style="fill:#ff0000;stroke:#ff0000;" x="87.593665" xlink:href="#mfcd7a0865f" y="127.292698"/>
     <use style="fill:#ff0000;stroke:#ff0000;" x="79.804223" xlink:href="#mfcd7a0865f" y="183.750609"/>
     <use style="fill:#ff0000;stroke:#ff0000;" x="96.719909" xlink:href="#mfcd7a0865f" y="130.247656"/>
     <use style="fill:#ff0000;stroke:#ff0000;" x="88.918417" xlink:href="#mfcd7a0865f" y="127.674471"/>
     <use style="fill:#ff0000;stroke:#ff0000;" x="85.484722" xlink:href="#mfcd7a0865f" y="217.553793"/>
     <use style="fill:#ff0000;stroke:#ff0000;" x="79.071946" xlink:href="#mfcd7a0865f" y="172.853629"/>
     <use style="fill:#ff0000;stroke:#ff0000;" x="104.707485" xlink:href="#mfcd7a0865f" y="133.245335"/>
     <use style="fill:#ff0000;stroke:#ff0000;" x="113.203335" xlink:href="#mfcd7a0865f" y="114.755031"/>
     <use style="fill:#ff0000;stroke:#ff0000;" x="91.329135" xlink:href="#mfcd7a0865f" y="166.009611"/>
     <use style="fill:#ff0000;stroke:#ff0000;" x="98.966322" xlink:href="#mfcd7a0865f" y="109.747409"/>
     <use style="fill:#ff0000;stroke:#ff0000;" x="85.913858" xlink:href="#mfcd7a0865f" y="164.348365"/>
     <use style="fill:#ff0000;stroke:#ff0000;" x="98.752437" xlink:href="#mfcd7a0865f" y="104.103209"/>
     <use style="fill:#ff0000;stroke:#ff0000;" x="91.809608" xlink:href="#mfcd7a0865f" y="139.301922"/>
    </g>
   </g>
   <g id="PathCollection_2">
    <defs>
     <path d="M 0 3 
C 0.795609 3 1.55874 2.683901 2.12132 2.12132 
C 2.683901 1.55874 3 0.795609 3 0 
C 3 -0.795609 2.683901 -1.55874 2.12132 -2.12132 
C 1.55874 -2.683901 0.795609 -3 0 -3 
C -0.795609 -3 -1.55874 -2.683901 -2.12132 -2.12132 
C -2.683901 -1.55874 -3 -0.795609 -3 0 
C -3 0.795609 -2.683901 1.55874 -2.12132 2.12132 
C -1.55874 2.683901 -0.795609 3 0 3 
z
" id="m8a78c4760a" style="stroke:#bfbf00;"/>
    </defs>
    <g clip-path="url(#p7af18e8ba8)">
     <use style="fill:#bfbf00;stroke:#bfbf00;" x="264.571784" xlink:href="#m8a78c4760a" y="96.212074"/>
     <use style="fill:#bfbf00;stroke:#bfbf00;" x="249.30907" xlink:href="#m8a78c4760a" y="123.58482"/>
     <use style="fill:#bfbf00;stroke:#bfbf00;" x="272.346441" xlink:href="#m8a78c4760a" y="109.71072"/>
     <use style="fill:#bfbf00;stroke:#bfbf00;" x="216.856121" xlink:href="#m8a78c4760a" y="209.121577"/>
     <use style="fill:#bfbf00;stroke:#bfbf00;" x="256.050065" xlink:href="#m8a78c4760a" y="141.773005"/>
     <use style="fill:#bfbf00;stroke:#bfbf00;" x="236.711211" xlink:href="#m8a78c4760a" y="178.548715"/>
     <use style="fill:#bfbf00;stroke:#bfbf00;" x="256.35145" xlink:href="#m8a78c4760a" y="126.186486"/>
     <use style="fill:#bfbf00;stroke:#bfbf00;" x="176.464211" xlink:href="#m8a78c4760a" y="222.324301"/>
     <use style="fill:#bfbf00;stroke:#bfbf00;" x="254.145289" xlink:href="#m8a78c4760a" y="130.298543"/>
     <use style="fill:#bfbf00;stroke:#bfbf00;" x="208.536236" xlink:href="#m8a78c4760a" y="201.295611"/>
     <use style="fill:#bfbf00;stroke:#bfbf00;" x="186.916173" xlink:href="#m8a78c4760a" y="241.806199"/>
     <use style="fill:#bfbf00;stroke:#bfbf00;" x="231.081084" xlink:href="#m8a78c4760a" y="155.098103"/>
     <use style="fill:#bfbf00;stroke:#bfbf00;" x="220.393457" xlink:href="#m8a78c4760a" y="188.3829"/>
     <use style="fill:#bfbf00;stroke:#bfbf00;" x="251.580951" xlink:href="#m8a78c4760a" y="156.652939"/>
     <use style="fill:#bfbf00;stroke:#bfbf00;" x="201.38089" xlink:href="#m8a78c4760a" y="166.356297"/>
     <use style="fill:#bfbf00;stroke:#bfbf00;" x="249.108603" xlink:href="#m8a78c4760a" y="112.47789"/>
     <use style="fill:#bfbf00;stroke:#bfbf00;" x="237.51757" xlink:href="#m8a78c4760a" y="173.677707"/>
     <use style="fill:#bfbf00;stroke:#bfbf00;" x="219.142786" xlink:href="#m8a78c4760a" y="172.233139"/>
     <use style="fill:#bfbf00;stroke:#bfbf00;" x="249.839514" xlink:href="#m8a78c4760a" y="187.868698"/>
     <use style="fill:#bfbf00;stroke:#bfbf00;" x="210.874239" xlink:href="#m8a78c4760a" y="190.904912"/>
     <use style="fill:#bfbf00;stroke:#bfbf00;" x="257.270777" xlink:href="#m8a78c4760a" y="153.653126"/>
     <use style="fill:#bfbf00;stroke:#bfbf00;" x="224.41826" xlink:href="#m8a78c4760a" y="152.482197"/>
     <use style="fill:#bfbf00;stroke:#bfbf00;" x="265.150441" xlink:href="#m8a78c4760a" y="171.79859"/>
     <use style="fill:#bfbf00;stroke:#bfbf00;" x="248.84298" xlink:href="#m8a78c4760a" y="160.974945"/>
     <use style="fill:#bfbf00;stroke:#bfbf00;" x="239.881442" xlink:href="#m8a78c4760a" y="136.216381"/>
     <use style="fill:#bfbf00;stroke:#bfbf00;" x="247.90927" xlink:href="#m8a78c4760a" y="122.825869"/>
     <use style="fill:#bfbf00;stroke:#bfbf00;" x="266.616363" xlink:href="#m8a78c4760a" y="129.098724"/>
     <use style="fill:#bfbf00;stroke:#bfbf00;" x="276.396713" xlink:href="#m8a78c4760a" y="127.378384"/>
     <use style="fill:#bfbf00;stroke:#bfbf00;" x="244.145598" xlink:href="#m8a78c4760a" y="159.528244"/>
     <use style="fill:#bfbf00;stroke:#bfbf00;" x="195.677646" xlink:href="#m8a78c4760a" y="174.81884"/>
     <use style="fill:#bfbf00;stroke:#bfbf00;" x="205.963937" xlink:href="#m8a78c4760a" y="199.959178"/>
     <use style="fill:#bfbf00;stroke:#bfbf00;" x="200.700915" xlink:href="#m8a78c4760a" y="198.102223"/>
     <use style="fill:#bfbf00;stroke:#bfbf00;" x="214.82496" xlink:href="#m8a78c4760a" y="170.772197"/>
     <use style="fill:#bfbf00;stroke:#bfbf00;" x="268.695737" xlink:href="#m8a78c4760a" y="178.750743"/>
     <use style="fill:#bfbf00;stroke:#bfbf00;" x="234.386626" xlink:href="#m8a78c4760a" y="183.476683"/>
     <use style="fill:#bfbf00;stroke:#bfbf00;" x="243.866959" xlink:href="#m8a78c4760a" y="132.849035"/>
     <use style="fill:#bfbf00;stroke:#bfbf00;" x="261.793561" xlink:href="#m8a78c4760a" y="116.922271"/>
     <use style="fill:#bfbf00;stroke:#bfbf00;" x="244.22377" xlink:href="#m8a78c4760a" y="175.100522"/>
     <use style="fill:#bfbf00;stroke:#bfbf00;" x="219.56959" xlink:href="#m8a78c4760a" y="167.376371"/>
     <use style="fill:#bfbf00;stroke:#bfbf00;" x="216.123844" xlink:href="#m8a78c4760a" y="198.224597"/>
     <use style="fill:#bfbf00;stroke:#bfbf00;" x="229.049521" xlink:href="#m8a78c4760a" y="197.387717"/>
     <use style="fill:#bfbf00;stroke:#bfbf00;" x="247.503844" xlink:href="#m8a78c4760a" y="149.910736"/>
     <use style="fill:#bfbf00;stroke:#bfbf00;" x="218.902067" xlink:href="#m8a78c4760a" y="177.5144"/>
     <use style="fill:#bfbf00;stroke:#bfbf00;" x="178.395822" xlink:href="#m8a78c4760a" y="222.873303"/>
     <use style="fill:#bfbf00;stroke:#bfbf00;" x="224.378974" xlink:href="#m8a78c4760a" y="185.015554"/>
     <use style="fill:#bfbf00;stroke:#bfbf00;" x="223.293975" xlink:href="#m8a78c4760a" y="163.207354"/>
     <use style="fill:#bfbf00;stroke:#bfbf00;" x="225.212168" xlink:href="#m8a78c4760a" y="169.219086"/>
     <use style="fill:#bfbf00;stroke:#bfbf00;" x="236.750497" xlink:href="#m8a78c4760a" y="146.015357"/>
     <use style="fill:#bfbf00;stroke:#bfbf00;" x="169.648168" xlink:href="#m8a78c4760a" y="203.758938"/>
     <use style="fill:#bfbf00;stroke:#bfbf00;" x="221.867339" xlink:href="#m8a78c4760a" y="173.373863"/>
    </g>
   </g>
   <g id="PathCollection_3">
    <defs>
     <path d="M 0 3 
C 0.795609 3 1.55874 2.683901 2.12132 2.12132 
C 2.683901 1.55874 3 0.795609 3 0 
C 3 -0.795609 2.683901 -1.55874 2.12132 -2.12132 
C 1.55874 -2.683901 0.795609 -3 0 -3 
C -0.795609 -3 -1.55874 -2.683901 -2.12132 -2.12132 
C -2.683901 -1.55874 -3 -0.795609 -3 0 
C -3 0.795609 -2.683901 1.55874 -2.12132 2.12132 
C -1.55874 2.683901 -0.795609 3 0 3 
z
" id="m2e69105bbb" style="stroke:#0000ff;"/>
    </defs>
    <g clip-path="url(#p7af18e8ba8)">
     <use style="fill:#0000ff;stroke:#0000ff;" x="318.562524" xlink:href="#m2e69105bbb" y="148.073931"/>
     <use style="fill:#0000ff;stroke:#0000ff;" x="270.220957" xlink:href="#m2e69105bbb" y="190.239446"/>
     <use style="fill:#0000ff;stroke:#0000ff;" x="322.265531" xlink:href="#m2e69105bbb" y="121.676814"/>
     <use style="fill:#0000ff;stroke:#0000ff;" x="294.318824" xlink:href="#m2e69105bbb" y="160.750346"/>
     <use style="fill:#0000ff;stroke:#0000ff;" x="310.713784" xlink:href="#m2e69105bbb" y="150.343273"/>
     <use style="fill:#0000ff;stroke:#0000ff;" x="356.069666" xlink:href="#m2e69105bbb" y="106.235363"/>
     <use style="fill:#0000ff;stroke:#0000ff;" x="231.494068" xlink:href="#m2e69105bbb" y="236.343059"/>
     <use style="fill:#0000ff;stroke:#0000ff;" x="335.950321" xlink:href="#m2e69105bbb" y="120.811453"/>
     <use style="fill:#0000ff;stroke:#0000ff;" x="309.467204" xlink:href="#m2e69105bbb" y="165.533779"/>
     <use style="fill:#0000ff;stroke:#0000ff;" x="335.264325" xlink:href="#m2e69105bbb" y="88.926779"/>
     <use style="fill:#0000ff;stroke:#0000ff;" x="280.900623" xlink:href="#m2e69105bbb" y="129.263819"/>
     <use style="fill:#0000ff;stroke:#0000ff;" x="287.035725" xlink:href="#m2e69105bbb" y="163.429941"/>
     <use style="fill:#0000ff;stroke:#0000ff;" x="302.725243" xlink:href="#m2e69105bbb" y="131.200428"/>
     <use style="fill:#0000ff;stroke:#0000ff;" x="267.228849" xlink:href="#m2e69105bbb" y="205.305443"/>
     <use style="fill:#0000ff;stroke:#0000ff;" x="277.615092" xlink:href="#m2e69105bbb" y="187.607166"/>
     <use style="fill:#0000ff;stroke:#0000ff;" x="291.41325" xlink:href="#m2e69105bbb" y="138.440459"/>
     <use style="fill:#0000ff;stroke:#0000ff;" x="293.372662" xlink:href="#m2e69105bbb" y="144.209167"/>
     <use style="fill:#0000ff;stroke:#0000ff;" x="359.96905" xlink:href="#m2e69105bbb" y="59.604908"/>
     <use style="fill:#0000ff;stroke:#0000ff;" x="373.336706" xlink:href="#m2e69105bbb" y="128.137457"/>
     <use style="fill:#0000ff;stroke:#0000ff;" x="265.263408" xlink:href="#m2e69105bbb" y="204.136239"/>
     <use style="fill:#0000ff;stroke:#0000ff;" x="314.084483" xlink:href="#m2e69105bbb" y="119.117869"/>
     <use style="fill:#0000ff;stroke:#0000ff;" x="260.853993" xlink:href="#m2e69105bbb" y="192.565748"/>
     <use style="fill:#0000ff;stroke:#0000ff;" x="360.526329" xlink:href="#m2e69105bbb" y="112.963325"/>
     <use style="fill:#0000ff;stroke:#0000ff;" x="269.074327" xlink:href="#m2e69105bbb" y="162.591336"/>
     <use style="fill:#0000ff;stroke:#0000ff;" x="307.48329" xlink:href="#m2e69105bbb" y="122.341871"/>
     <use style="fill:#0000ff;stroke:#0000ff;" x="322.153529" xlink:href="#m2e69105bbb" y="105.484332"/>
     <use style="fill:#0000ff;stroke:#0000ff;" x="263.431749" xlink:href="#m2e69105bbb" y="160.748622"/>
     <use style="fill:#0000ff;stroke:#0000ff;" x="264.844967" xlink:href="#m2e69105bbb" y="156.044843"/>
     <use style="fill:#0000ff;stroke:#0000ff;" x="300.906599" xlink:href="#m2e69105bbb" y="162.989074"/>
     <use style="fill:#0000ff;stroke:#0000ff;" x="312.359761" xlink:href="#m2e69105bbb" y="112.667403"/>
     <use style="fill:#0000ff;stroke:#0000ff;" x="332.012051" xlink:href="#m2e69105bbb" y="119.336271"/>
     <use style="fill:#0000ff;stroke:#0000ff;" x="348.862982" xlink:href="#m2e69105bbb" y="44.798309"/>
     <use style="fill:#0000ff;stroke:#0000ff;" x="302.458654" xlink:href="#m2e69105bbb" y="163.552316"/>
     <use style="fill:#0000ff;stroke:#0000ff;" x="271.47396" xlink:href="#m2e69105bbb" y="158.040546"/>
     <use style="fill:#0000ff;stroke:#0000ff;" x="286.078077" xlink:href="#m2e69105bbb" y="184.641825"/>
     <use style="fill:#0000ff;stroke:#0000ff;" x="342.184409" xlink:href="#m2e69105bbb" y="95.993794"/>
     <use style="fill:#0000ff;stroke:#0000ff;" x="301.800459" xlink:href="#m2e69105bbb" y="136.887348"/>
     <use style="fill:#0000ff;stroke:#0000ff;" x="291.441051" xlink:href="#m2e69105bbb" y="143.660165"/>
     <use style="fill:#0000ff;stroke:#0000ff;" x="259.568527" xlink:href="#m2e69105bbb" y="159.650618"/>
     <use style="fill:#0000ff;stroke:#0000ff;" x="300.213608" xlink:href="#m2e69105bbb" y="119.558736"/>
     <use style="fill:#0000ff;stroke:#0000ff;" x="309.160764" xlink:href="#m2e69105bbb" y="133.634865"/>
     <use style="fill:#0000ff;stroke:#0000ff;" x="292.184815" xlink:href="#m2e69105bbb" y="116.804082"/>
     <use style="fill:#0000ff;stroke:#0000ff;" x="270.220957" xlink:href="#m2e69105bbb" y="190.239446"/>
     <use style="fill:#0000ff;stroke:#0000ff;" x="319.940946" xlink:href="#m2e69105bbb" y="126.604783"/>
     <use style="fill:#0000ff;stroke:#0000ff;" x="313.691509" xlink:href="#m2e69105bbb" y="124.594839"/>
     <use style="fill:#0000ff;stroke:#0000ff;" x="293.130977" xlink:href="#m2e69105bbb" y="133.345261"/>
     <use style="fill:#0000ff;stroke:#0000ff;" x="275.069627" xlink:href="#m2e69105bbb" y="175.345271"/>
     <use style="fill:#0000ff;stroke:#0000ff;" x="285.343868" xlink:href="#m2e69105bbb" y="141.454512"/>
     <use style="fill:#0000ff;stroke:#0000ff;" x="291.260996" xlink:href="#m2e69105bbb" y="138.636168"/>
     <use style="fill:#0000ff;stroke:#0000ff;" x="269.135958" xlink:href="#m2e69105bbb" y="168.431245"/>
    </g>
   </g>
   <g id="matplotlib.axis_1">
    <g id="xtick_1">
     <g id="line2d_1">
      <defs>
       <path d="M 0 0 
L 0 3.5 
" id="m9e803401a5" style="stroke:#000000;stroke-width:0.8;"/>
      </defs>
      <g>
       <use style="stroke:#000000;stroke-width:0.8;" x="78.959601" xlink:href="#m9e803401a5" y="252"/>
      </g>
     </g>
     <g id="text_1">
      <!-- −3 -->
      <defs>
       <path d="M 10.59375 35.5 
L 73.1875 35.5 
L 73.1875 27.203125 
L 10.59375 27.203125 
z
" id="DejaVuSans-8722"/>
       <path d="M 40.578125 39.3125 
Q 47.65625 37.796875 51.625 33 
Q 55.609375 28.21875 55.609375 21.1875 
Q 55.609375 10.40625 48.1875 4.484375 
Q 40.765625 -1.421875 27.09375 -1.421875 
Q 22.515625 -1.421875 17.65625 -0.515625 
Q 12.796875 0.390625 7.625 2.203125 
L 7.625 11.71875 
Q 11.71875 9.328125 16.59375 8.109375 
Q 21.484375 6.890625 26.8125 6.890625 
Q 36.078125 6.890625 40.9375 10.546875 
Q 45.796875 14.203125 45.796875 21.1875 
Q 45.796875 27.640625 41.28125 31.265625 
Q 36.765625 34.90625 28.71875 34.90625 
L 20.21875 34.90625 
L 20.21875 43.015625 
L 29.109375 43.015625 
Q 36.375 43.015625 40.234375 45.921875 
Q 44.09375 48.828125 44.09375 54.296875 
Q 44.09375 59.90625 40.109375 62.90625 
Q 36.140625 65.921875 28.71875 65.921875 
Q 24.65625 65.921875 20.015625 65.03125 
Q 15.375 64.15625 9.8125 62.3125 
L 9.8125 71.09375 
Q 15.4375 72.65625 20.34375 73.4375 
Q 25.25 74.21875 29.59375 74.21875 
Q 40.828125 74.21875 47.359375 69.109375 
Q 53.90625 64.015625 53.90625 55.328125 
Q 53.90625 49.265625 50.4375 45.09375 
Q 46.96875 40.921875 40.578125 39.3125 
z
" id="DejaVuSans-51"/>
      </defs>
      <g transform="translate(71.588508 266.598437)scale(0.1 -0.1)">
       <use xlink:href="#DejaVuSans-8722"/>
       <use x="83.789062" xlink:href="#DejaVuSans-51"/>
      </g>
     </g>
    </g>
    <g id="xtick_2">
     <g id="line2d_2">
      <g>
       <use style="stroke:#000000;stroke-width:0.8;" x="122.278092" xlink:href="#m9e803401a5" y="252"/>
      </g>
     </g>
     <g id="text_2">
      <!-- −2 -->
      <defs>
       <path d="M 19.1875 8.296875 
L 53.609375 8.296875 
L 53.609375 0 
L 7.328125 0 
L 7.328125 8.296875 
Q 12.9375 14.109375 22.625 23.890625 
Q 32.328125 33.6875 34.8125 36.53125 
Q 39.546875 41.84375 41.421875 45.53125 
Q 43.3125 49.21875 43.3125 52.78125 
Q 43.3125 58.59375 39.234375 62.25 
Q 35.15625 65.921875 28.609375 65.921875 
Q 23.96875 65.921875 18.8125 64.3125 
Q 13.671875 62.703125 7.8125 59.421875 
L 7.8125 69.390625 
Q 13.765625 71.78125 18.9375 73 
Q 24.125 74.21875 28.421875 74.21875 
Q 39.75 74.21875 46.484375 68.546875 
Q 53.21875 62.890625 53.21875 53.421875 
Q 53.21875 48.921875 51.53125 44.890625 
Q 49.859375 40.875 45.40625 35.40625 
Q 44.1875 33.984375 37.640625 27.21875 
Q 31.109375 20.453125 19.1875 8.296875 
z
" id="DejaVuSans-50"/>
      </defs>
      <g transform="translate(114.906999 266.598437)scale(0.1 -0.1)">
       <use xlink:href="#DejaVuSans-8722"/>
       <use x="83.789062" xlink:href="#DejaVuSans-50"/>
      </g>
     </g>
    </g>
    <g id="xtick_3">
     <g id="line2d_3">
      <g>
       <use style="stroke:#000000;stroke-width:0.8;" x="165.596583" xlink:href="#m9e803401a5" y="252"/>
      </g>
     </g>
     <g id="text_3">
      <!-- −1 -->
      <defs>
       <path d="M 12.40625 8.296875 
L 28.515625 8.296875 
L 28.515625 63.921875 
L 10.984375 60.40625 
L 10.984375 69.390625 
L 28.421875 72.90625 
L 38.28125 72.90625 
L 38.28125 8.296875 
L 54.390625 8.296875 
L 54.390625 0 
L 12.40625 0 
z
" id="DejaVuSans-49"/>
      </defs>
      <g transform="translate(158.225489 266.598437)scale(0.1 -0.1)">
       <use xlink:href="#DejaVuSans-8722"/>
       <use x="83.789062" xlink:href="#DejaVuSans-49"/>
      </g>
     </g>
    </g>
    <g id="xtick_4">
     <g id="line2d_4">
      <g>
       <use style="stroke:#000000;stroke-width:0.8;" x="208.915074" xlink:href="#m9e803401a5" y="252"/>
      </g>
     </g>
     <g id="text_4">
      <!-- 0 -->
      <defs>
       <path d="M 31.78125 66.40625 
Q 24.171875 66.40625 20.328125 58.90625 
Q 16.5 51.421875 16.5 36.375 
Q 16.5 21.390625 20.328125 13.890625 
Q 24.171875 6.390625 31.78125 6.390625 
Q 39.453125 6.390625 43.28125 13.890625 
Q 47.125 21.390625 47.125 36.375 
Q 47.125 51.421875 43.28125 58.90625 
Q 39.453125 66.40625 31.78125 66.40625 
z
M 31.78125 74.21875 
Q 44.046875 74.21875 50.515625 64.515625 
Q 56.984375 54.828125 56.984375 36.375 
Q 56.984375 17.96875 50.515625 8.265625 
Q 44.046875 -1.421875 31.78125 -1.421875 
Q 19.53125 -1.421875 13.0625 8.265625 
Q 6.59375 17.96875 6.59375 36.375 
Q 6.59375 54.828125 13.0625 64.515625 
Q 19.53125 74.21875 31.78125 74.21875 
z
" id="DejaVuSans-48"/>
      </defs>
      <g transform="translate(205.733824 266.598437)scale(0.1 -0.1)">
       <use xlink:href="#DejaVuSans-48"/>
      </g>
     </g>
    </g>
    <g id="xtick_5">
     <g id="line2d_5">
      <g>
       <use style="stroke:#000000;stroke-width:0.8;" x="252.233565" xlink:href="#m9e803401a5" y="252"/>
      </g>
     </g>
     <g id="text_5">
      <!-- 1 -->
      <g transform="translate(249.052315 266.598437)scale(0.1 -0.1)">
       <use xlink:href="#DejaVuSans-49"/>
      </g>
     </g>
    </g>
    <g id="xtick_6">
     <g id="line2d_6">
      <g>
       <use style="stroke:#000000;stroke-width:0.8;" x="295.552056" xlink:href="#m9e803401a5" y="252"/>
      </g>
     </g>
     <g id="text_6">
      <!-- 2 -->
      <g transform="translate(292.370806 266.598437)scale(0.1 -0.1)">
       <use xlink:href="#DejaVuSans-50"/>
      </g>
     </g>
    </g>
    <g id="xtick_7">
     <g id="line2d_7">
      <g>
       <use style="stroke:#000000;stroke-width:0.8;" x="338.870547" xlink:href="#m9e803401a5" y="252"/>
      </g>
     </g>
     <g id="text_7">
      <!-- 3 -->
      <g transform="translate(335.689297 266.598437)scale(0.1 -0.1)">
       <use xlink:href="#DejaVuSans-51"/>
      </g>
     </g>
    </g>
    <g id="xtick_8">
     <g id="line2d_8">
      <g>
       <use style="stroke:#000000;stroke-width:0.8;" x="382.189038" xlink:href="#m9e803401a5" y="252"/>
      </g>
     </g>
     <g id="text_8">
      <!-- 4 -->
      <defs>
       <path d="M 37.796875 64.3125 
L 12.890625 25.390625 
L 37.796875 25.390625 
z
M 35.203125 72.90625 
L 47.609375 72.90625 
L 47.609375 25.390625 
L 58.015625 25.390625 
L 58.015625 17.1875 
L 47.609375 17.1875 
L 47.609375 0 
L 37.796875 0 
L 37.796875 17.1875 
L 4.890625 17.1875 
L 4.890625 26.703125 
z
" id="DejaVuSans-52"/>
      </defs>
      <g transform="translate(379.007788 266.598437)scale(0.1 -0.1)">
       <use xlink:href="#DejaVuSans-52"/>
      </g>
     </g>
    </g>
    <g id="text_9">
     <!-- Dimension1 -->
     <defs>
      <path d="M 19.671875 64.796875 
L 19.671875 8.109375 
L 31.59375 8.109375 
Q 46.6875 8.109375 53.6875 14.9375 
Q 60.6875 21.78125 60.6875 36.53125 
Q 60.6875 51.171875 53.6875 57.984375 
Q 46.6875 64.796875 31.59375 64.796875 
z
M 9.8125 72.90625 
L 30.078125 72.90625 
Q 51.265625 72.90625 61.171875 64.09375 
Q 71.09375 55.28125 71.09375 36.53125 
Q 71.09375 17.671875 61.125 8.828125 
Q 51.171875 0 30.078125 0 
L 9.8125 0 
z
" id="DejaVuSans-68"/>
      <path d="M 9.421875 54.6875 
L 18.40625 54.6875 
L 18.40625 0 
L 9.421875 0 
z
M 9.421875 75.984375 
L 18.40625 75.984375 
L 18.40625 64.59375 
L 9.421875 64.59375 
z
" id="DejaVuSans-105"/>
      <path d="M 52 44.1875 
Q 55.375 50.25 60.0625 53.125 
Q 64.75 56 71.09375 56 
Q 79.640625 56 84.28125 50.015625 
Q 88.921875 44.046875 88.921875 33.015625 
L 88.921875 0 
L 79.890625 0 
L 79.890625 32.71875 
Q 79.890625 40.578125 77.09375 44.375 
Q 74.3125 48.1875 68.609375 48.1875 
Q 61.625 48.1875 57.5625 43.546875 
Q 53.515625 38.921875 53.515625 30.90625 
L 53.515625 0 
L 44.484375 0 
L 44.484375 32.71875 
Q 44.484375 40.625 41.703125 44.40625 
Q 38.921875 48.1875 33.109375 48.1875 
Q 26.21875 48.1875 22.15625 43.53125 
Q 18.109375 38.875 18.109375 30.90625 
L 18.109375 0 
L 9.078125 0 
L 9.078125 54.6875 
L 18.109375 54.6875 
L 18.109375 46.1875 
Q 21.1875 51.21875 25.484375 53.609375 
Q 29.78125 56 35.6875 56 
Q 41.65625 56 45.828125 52.96875 
Q 50 49.953125 52 44.1875 
z
" id="DejaVuSans-109"/>
      <path d="M 56.203125 29.59375 
L 56.203125 25.203125 
L 14.890625 25.203125 
Q 15.484375 15.921875 20.484375 11.0625 
Q 25.484375 6.203125 34.421875 6.203125 
Q 39.59375 6.203125 44.453125 7.46875 
Q 49.3125 8.734375 54.109375 11.28125 
L 54.109375 2.78125 
Q 49.265625 0.734375 44.1875 -0.34375 
Q 39.109375 -1.421875 33.890625 -1.421875 
Q 20.796875 -1.421875 13.15625 6.1875 
Q 5.515625 13.8125 5.515625 26.8125 
Q 5.515625 40.234375 12.765625 48.109375 
Q 20.015625 56 32.328125 56 
Q 43.359375 56 49.78125 48.890625 
Q 56.203125 41.796875 56.203125 29.59375 
z
M 47.21875 32.234375 
Q 47.125 39.59375 43.09375 43.984375 
Q 39.0625 48.390625 32.421875 48.390625 
Q 24.90625 48.390625 20.390625 44.140625 
Q 15.875 39.890625 15.1875 32.171875 
z
" id="DejaVuSans-101"/>
      <path d="M 54.890625 33.015625 
L 54.890625 0 
L 45.90625 0 
L 45.90625 32.71875 
Q 45.90625 40.484375 42.875 44.328125 
Q 39.84375 48.1875 33.796875 48.1875 
Q 26.515625 48.1875 22.3125 43.546875 
Q 18.109375 38.921875 18.109375 30.90625 
L 18.109375 0 
L 9.078125 0 
L 9.078125 54.6875 
L 18.109375 54.6875 
L 18.109375 46.1875 
Q 21.34375 51.125 25.703125 53.5625 
Q 30.078125 56 35.796875 56 
Q 45.21875 56 50.046875 50.171875 
Q 54.890625 44.34375 54.890625 33.015625 
z
" id="DejaVuSans-110"/>
      <path d="M 44.28125 53.078125 
L 44.28125 44.578125 
Q 40.484375 46.53125 36.375 47.5 
Q 32.28125 48.484375 27.875 48.484375 
Q 21.1875 48.484375 17.84375 46.4375 
Q 14.5 44.390625 14.5 40.28125 
Q 14.5 37.15625 16.890625 35.375 
Q 19.28125 33.59375 26.515625 31.984375 
L 29.59375 31.296875 
Q 39.15625 29.25 43.1875 25.515625 
Q 47.21875 21.78125 47.21875 15.09375 
Q 47.21875 7.46875 41.1875 3.015625 
Q 35.15625 -1.421875 24.609375 -1.421875 
Q 20.21875 -1.421875 15.453125 -0.5625 
Q 10.6875 0.296875 5.421875 2 
L 5.421875 11.28125 
Q 10.40625 8.6875 15.234375 7.390625 
Q 20.0625 6.109375 24.8125 6.109375 
Q 31.15625 6.109375 34.5625 8.28125 
Q 37.984375 10.453125 37.984375 14.40625 
Q 37.984375 18.0625 35.515625 20.015625 
Q 33.0625 21.96875 24.703125 23.78125 
L 21.578125 24.515625 
Q 13.234375 26.265625 9.515625 29.90625 
Q 5.8125 33.546875 5.8125 39.890625 
Q 5.8125 47.609375 11.28125 51.796875 
Q 16.75 56 26.8125 56 
Q 31.78125 56 36.171875 55.265625 
Q 40.578125 54.546875 44.28125 53.078125 
z
" id="DejaVuSans-115"/>
      <path d="M 30.609375 48.390625 
Q 23.390625 48.390625 19.1875 42.75 
Q 14.984375 37.109375 14.984375 27.296875 
Q 14.984375 17.484375 19.15625 11.84375 
Q 23.34375 6.203125 30.609375 6.203125 
Q 37.796875 6.203125 41.984375 11.859375 
Q 46.1875 17.53125 46.1875 27.296875 
Q 46.1875 37.015625 41.984375 42.703125 
Q 37.796875 48.390625 30.609375 48.390625 
z
M 30.609375 56 
Q 42.328125 56 49.015625 48.375 
Q 55.71875 40.765625 55.71875 27.296875 
Q 55.71875 13.875 49.015625 6.21875 
Q 42.328125 -1.421875 30.609375 -1.421875 
Q 18.84375 -1.421875 12.171875 6.21875 
Q 5.515625 13.875 5.515625 27.296875 
Q 5.515625 40.765625 12.171875 48.375 
Q 18.84375 56 30.609375 56 
z
" id="DejaVuSans-111"/>
     </defs>
     <g transform="translate(191.642188 280.276563)scale(0.1 -0.1)">
      <use xlink:href="#DejaVuSans-68"/>
      <use x="77.001953" xlink:href="#DejaVuSans-105"/>
      <use x="104.785156" xlink:href="#DejaVuSans-109"/>
      <use x="202.197266" xlink:href="#DejaVuSans-101"/>
      <use x="263.720703" xlink:href="#DejaVuSans-110"/>
      <use x="327.099609" xlink:href="#DejaVuSans-115"/>
      <use x="379.199219" xlink:href="#DejaVuSans-105"/>
      <use x="406.982422" xlink:href="#DejaVuSans-111"/>
      <use x="468.164062" xlink:href="#DejaVuSans-110"/>
      <use x="531.542969" xlink:href="#DejaVuSans-49"/>
     </g>
    </g>
   </g>
   <g id="matplotlib.axis_2">
    <g id="ytick_1">
     <g id="line2d_9">
      <defs>
       <path d="M 0 0 
L -3.5 0 
" id="m8be0b1005f" style="stroke:#000000;stroke-width:0.8;"/>
      </defs>
      <g>
       <use style="stroke:#000000;stroke-width:0.8;" x="54" xlink:href="#m8be0b1005f" y="221.959336"/>
      </g>
     </g>
     <g id="text_10">
      <!-- −1.0 -->
      <defs>
       <path d="M 10.6875 12.40625 
L 21 12.40625 
L 21 0 
L 10.6875 0 
z
" id="DejaVuSans-46"/>
      </defs>
      <g transform="translate(22.717187 225.758555)scale(0.1 -0.1)">
       <use xlink:href="#DejaVuSans-8722"/>
       <use x="83.789062" xlink:href="#DejaVuSans-49"/>
       <use x="147.412109" xlink:href="#DejaVuSans-46"/>
       <use x="179.199219" xlink:href="#DejaVuSans-48"/>
      </g>
     </g>
    </g>
    <g id="ytick_2">
     <g id="line2d_10">
      <g>
       <use style="stroke:#000000;stroke-width:0.8;" x="54" xlink:href="#m8be0b1005f" y="184.649162"/>
      </g>
     </g>
     <g id="text_11">
      <!-- −0.5 -->
      <defs>
       <path d="M 10.796875 72.90625 
L 49.515625 72.90625 
L 49.515625 64.59375 
L 19.828125 64.59375 
L 19.828125 46.734375 
Q 21.96875 47.46875 24.109375 47.828125 
Q 26.265625 48.1875 28.421875 48.1875 
Q 40.625 48.1875 47.75 41.5 
Q 54.890625 34.8125 54.890625 23.390625 
Q 54.890625 11.625 47.5625 5.09375 
Q 40.234375 -1.421875 26.90625 -1.421875 
Q 22.3125 -1.421875 17.546875 -0.640625 
Q 12.796875 0.140625 7.71875 1.703125 
L 7.71875 11.625 
Q 12.109375 9.234375 16.796875 8.0625 
Q 21.484375 6.890625 26.703125 6.890625 
Q 35.15625 6.890625 40.078125 11.328125 
Q 45.015625 15.765625 45.015625 23.390625 
Q 45.015625 31 40.078125 35.4375 
Q 35.15625 39.890625 26.703125 39.890625 
Q 22.75 39.890625 18.8125 39.015625 
Q 14.890625 38.140625 10.796875 36.28125 
z
" id="DejaVuSans-53"/>
      </defs>
      <g transform="translate(22.717187 188.44838)scale(0.1 -0.1)">
       <use xlink:href="#DejaVuSans-8722"/>
       <use x="83.789062" xlink:href="#DejaVuSans-48"/>
       <use x="147.412109" xlink:href="#DejaVuSans-46"/>
       <use x="179.199219" xlink:href="#DejaVuSans-53"/>
      </g>
     </g>
    </g>
    <g id="ytick_3">
     <g id="line2d_11">
      <g>
       <use style="stroke:#000000;stroke-width:0.8;" x="54" xlink:href="#m8be0b1005f" y="147.338987"/>
      </g>
     </g>
     <g id="text_12">
      <!-- 0.0 -->
      <g transform="translate(31.096875 151.138206)scale(0.1 -0.1)">
       <use xlink:href="#DejaVuSans-48"/>
       <use x="63.623047" xlink:href="#DejaVuSans-46"/>
       <use x="95.410156" xlink:href="#DejaVuSans-48"/>
      </g>
     </g>
    </g>
    <g id="ytick_4">
     <g id="line2d_12">
      <g>
       <use style="stroke:#000000;stroke-width:0.8;" x="54" xlink:href="#m8be0b1005f" y="110.028813"/>
      </g>
     </g>
     <g id="text_13">
      <!-- 0.5 -->
      <g transform="translate(31.096875 113.828032)scale(0.1 -0.1)">
       <use xlink:href="#DejaVuSans-48"/>
       <use x="63.623047" xlink:href="#DejaVuSans-46"/>
       <use x="95.410156" xlink:href="#DejaVuSans-53"/>
      </g>
     </g>
    </g>
    <g id="ytick_5">
     <g id="line2d_13">
      <g>
       <use style="stroke:#000000;stroke-width:0.8;" x="54" xlink:href="#m8be0b1005f" y="72.718638"/>
      </g>
     </g>
     <g id="text_14">
      <!-- 1.0 -->
      <g transform="translate(31.096875 76.517857)scale(0.1 -0.1)">
       <use xlink:href="#DejaVuSans-49"/>
       <use x="63.623047" xlink:href="#DejaVuSans-46"/>
       <use x="95.410156" xlink:href="#DejaVuSans-48"/>
      </g>
     </g>
    </g>
    <g id="ytick_6">
     <g id="line2d_14">
      <g>
       <use style="stroke:#000000;stroke-width:0.8;" x="54" xlink:href="#m8be0b1005f" y="35.408464"/>
      </g>
     </g>
     <g id="text_15">
      <!-- 1.5 -->
      <g transform="translate(31.096875 39.207683)scale(0.1 -0.1)">
       <use xlink:href="#DejaVuSans-49"/>
       <use x="63.623047" xlink:href="#DejaVuSans-46"/>
       <use x="95.410156" xlink:href="#DejaVuSans-53"/>
      </g>
     </g>
    </g>
    <g id="text_16">
     <!-- Dimension2 -->
     <g transform="translate(16.6375 173.037813)rotate(-90)scale(0.1 -0.1)">
      <use xlink:href="#DejaVuSans-68"/>
      <use x="77.001953" xlink:href="#DejaVuSans-105"/>
      <use x="104.785156" xlink:href="#DejaVuSans-109"/>
      <use x="202.197266" xlink:href="#DejaVuSans-101"/>
      <use x="263.720703" xlink:href="#DejaVuSans-110"/>
      <use x="327.099609" xlink:href="#DejaVuSans-115"/>
      <use x="379.199219" xlink:href="#DejaVuSans-105"/>
      <use x="406.982422" xlink:href="#DejaVuSans-111"/>
      <use x="468.164062" xlink:href="#DejaVuSans-110"/>
      <use x="531.542969" xlink:href="#DejaVuSans-50"/>
     </g>
    </g>
   </g>
   <g id="patch_3">
    <path d="M 54 252 
L 54 34.56 
" style="fill:none;stroke:#000000;stroke-linecap:square;stroke-linejoin:miter;stroke-width:0.8;"/>
   </g>
   <g id="patch_4">
    <path d="M 388.8 252 
L 388.8 34.56 
" style="fill:none;stroke:#000000;stroke-linecap:square;stroke-linejoin:miter;stroke-width:0.8;"/>
   </g>
   <g id="patch_5">
    <path d="M 54 252 
L 388.8 252 
" style="fill:none;stroke:#000000;stroke-linecap:square;stroke-linejoin:miter;stroke-width:0.8;"/>
   </g>
   <g id="patch_6">
    <path d="M 54 34.56 
L 388.8 34.56 
" style="fill:none;stroke:#000000;stroke-linecap:square;stroke-linejoin:miter;stroke-width:0.8;"/>
   </g>
   <g id="text_17">
    <!-- IRIS -->
    <defs>
     <path d="M 9.8125 72.90625 
L 19.671875 72.90625 
L 19.671875 0 
L 9.8125 0 
z
" id="DejaVuSans-73"/>
     <path d="M 44.390625 34.1875 
Q 47.5625 33.109375 50.5625 29.59375 
Q 53.5625 26.078125 56.59375 19.921875 
L 66.609375 0 
L 56 0 
L 46.6875 18.703125 
Q 43.0625 26.03125 39.671875 28.421875 
Q 36.28125 30.8125 30.421875 30.8125 
L 19.671875 30.8125 
L 19.671875 0 
L 9.8125 0 
L 9.8125 72.90625 
L 32.078125 72.90625 
Q 44.578125 72.90625 50.734375 67.671875 
Q 56.890625 62.453125 56.890625 51.90625 
Q 56.890625 45.015625 53.6875 40.46875 
Q 50.484375 35.9375 44.390625 34.1875 
z
M 19.671875 64.796875 
L 19.671875 38.921875 
L 32.078125 38.921875 
Q 39.203125 38.921875 42.84375 42.21875 
Q 46.484375 45.515625 46.484375 51.90625 
Q 46.484375 58.296875 42.84375 61.546875 
Q 39.203125 64.796875 32.078125 64.796875 
z
" id="DejaVuSans-82"/>
     <path d="M 53.515625 70.515625 
L 53.515625 60.890625 
Q 47.90625 63.578125 42.921875 64.890625 
Q 37.9375 66.21875 33.296875 66.21875 
Q 25.25 66.21875 20.875 63.09375 
Q 16.5 59.96875 16.5 54.203125 
Q 16.5 49.359375 19.40625 46.890625 
Q 22.3125 44.4375 30.421875 42.921875 
L 36.375 41.703125 
Q 47.40625 39.59375 52.65625 34.296875 
Q 57.90625 29 57.90625 20.125 
Q 57.90625 9.515625 50.796875 4.046875 
Q 43.703125 -1.421875 29.984375 -1.421875 
Q 24.8125 -1.421875 18.96875 -0.25 
Q 13.140625 0.921875 6.890625 3.21875 
L 6.890625 13.375 
Q 12.890625 10.015625 18.65625 8.296875 
Q 24.421875 6.59375 29.984375 6.59375 
Q 38.421875 6.59375 43.015625 9.90625 
Q 47.609375 13.234375 47.609375 19.390625 
Q 47.609375 24.75 44.3125 27.78125 
Q 41.015625 30.8125 33.5 32.328125 
L 27.484375 33.5 
Q 16.453125 35.6875 11.515625 40.375 
Q 6.59375 45.0625 6.59375 53.421875 
Q 6.59375 63.09375 13.40625 68.65625 
Q 20.21875 74.21875 32.171875 74.21875 
Q 37.3125 74.21875 42.625 73.28125 
Q 47.953125 72.359375 53.515625 70.515625 
z
" id="DejaVuSans-83"/>
    </defs>
    <g transform="translate(209.881875 28.56)scale(0.12 -0.12)">
     <use xlink:href="#DejaVuSans-73"/>
     <use x="29.492188" xlink:href="#DejaVuSans-82"/>
     <use x="98.974609" xlink:href="#DejaVuSans-73"/>
     <use x="128.466797" xlink:href="#DejaVuSans-83"/>
    </g>
   </g>
   <g id="legend_1">
    <g id="patch_7">
     <path d="M 301.004688 247 
L 381.8 247 
Q 383.8 247 383.8 245 
L 383.8 201.965625 
Q 383.8 199.965625 381.8 199.965625 
L 301.004688 199.965625 
Q 299.004688 199.965625 299.004688 201.965625 
L 299.004688 245 
Q 299.004688 247 301.004688 247 
z
" style="fill:#ffffff;opacity:0.8;stroke:#cccccc;stroke-linejoin:miter;"/>
    </g>
    <g id="PathCollection_4">
     <g>
      <use style="fill:#ff0000;stroke:#ff0000;" x="313.004688" xlink:href="#mfcd7a0865f" y="208.939063"/>
     </g>
    </g>
    <g id="text_18">
     <!-- setosa -->
     <defs>
      <path d="M 18.3125 70.21875 
L 18.3125 54.6875 
L 36.8125 54.6875 
L 36.8125 47.703125 
L 18.3125 47.703125 
L 18.3125 18.015625 
Q 18.3125 11.328125 20.140625 9.421875 
Q 21.96875 7.515625 27.59375 7.515625 
L 36.8125 7.515625 
L 36.8125 0 
L 27.59375 0 
Q 17.1875 0 13.234375 3.875 
Q 9.28125 7.765625 9.28125 18.015625 
L 9.28125 47.703125 
L 2.6875 47.703125 
L 2.6875 54.6875 
L 9.28125 54.6875 
L 9.28125 70.21875 
z
" id="DejaVuSans-116"/>
      <path d="M 34.28125 27.484375 
Q 23.390625 27.484375 19.1875 25 
Q 14.984375 22.515625 14.984375 16.5 
Q 14.984375 11.71875 18.140625 8.90625 
Q 21.296875 6.109375 26.703125 6.109375 
Q 34.1875 6.109375 38.703125 11.40625 
Q 43.21875 16.703125 43.21875 25.484375 
L 43.21875 27.484375 
z
M 52.203125 31.203125 
L 52.203125 0 
L 43.21875 0 
L 43.21875 8.296875 
Q 40.140625 3.328125 35.546875 0.953125 
Q 30.953125 -1.421875 24.3125 -1.421875 
Q 15.921875 -1.421875 10.953125 3.296875 
Q 6 8.015625 6 15.921875 
Q 6 25.140625 12.171875 29.828125 
Q 18.359375 34.515625 30.609375 34.515625 
L 43.21875 34.515625 
L 43.21875 35.40625 
Q 43.21875 41.609375 39.140625 45 
Q 35.0625 48.390625 27.6875 48.390625 
Q 23 48.390625 18.546875 47.265625 
Q 14.109375 46.140625 10.015625 43.890625 
L 10.015625 52.203125 
Q 14.9375 54.109375 19.578125 55.046875 
Q 24.21875 56 28.609375 56 
Q 40.484375 56 46.34375 49.84375 
Q 52.203125 43.703125 52.203125 31.203125 
z
" id="DejaVuSans-97"/>
     </defs>
     <g transform="translate(331.004688 211.564063)scale(0.1 -0.1)">
      <use xlink:href="#DejaVuSans-115"/>
      <use x="52.099609" xlink:href="#DejaVuSans-101"/>
      <use x="113.623047" xlink:href="#DejaVuSans-116"/>
      <use x="152.832031" xlink:href="#DejaVuSans-111"/>
      <use x="214.013672" xlink:href="#DejaVuSans-115"/>
      <use x="266.113281" xlink:href="#DejaVuSans-97"/>
     </g>
    </g>
    <g id="PathCollection_5">
     <g>
      <use style="fill:#bfbf00;stroke:#bfbf00;" x="313.004688" xlink:href="#m8a78c4760a" y="223.617188"/>
     </g>
    </g>
    <g id="text_19">
     <!-- versicolor -->
     <defs>
      <path d="M 2.984375 54.6875 
L 12.5 54.6875 
L 29.59375 8.796875 
L 46.6875 54.6875 
L 56.203125 54.6875 
L 35.6875 0 
L 23.484375 0 
z
" id="DejaVuSans-118"/>
      <path d="M 41.109375 46.296875 
Q 39.59375 47.171875 37.8125 47.578125 
Q 36.03125 48 33.890625 48 
Q 26.265625 48 22.1875 43.046875 
Q 18.109375 38.09375 18.109375 28.8125 
L 18.109375 0 
L 9.078125 0 
L 9.078125 54.6875 
L 18.109375 54.6875 
L 18.109375 46.1875 
Q 20.953125 51.171875 25.484375 53.578125 
Q 30.03125 56 36.53125 56 
Q 37.453125 56 38.578125 55.875 
Q 39.703125 55.765625 41.0625 55.515625 
z
" id="DejaVuSans-114"/>
      <path d="M 48.78125 52.59375 
L 48.78125 44.1875 
Q 44.96875 46.296875 41.140625 47.34375 
Q 37.3125 48.390625 33.40625 48.390625 
Q 24.65625 48.390625 19.8125 42.84375 
Q 14.984375 37.3125 14.984375 27.296875 
Q 14.984375 17.28125 19.8125 11.734375 
Q 24.65625 6.203125 33.40625 6.203125 
Q 37.3125 6.203125 41.140625 7.25 
Q 44.96875 8.296875 48.78125 10.40625 
L 48.78125 2.09375 
Q 45.015625 0.34375 40.984375 -0.53125 
Q 36.96875 -1.421875 32.421875 -1.421875 
Q 20.0625 -1.421875 12.78125 6.34375 
Q 5.515625 14.109375 5.515625 27.296875 
Q 5.515625 40.671875 12.859375 48.328125 
Q 20.21875 56 33.015625 56 
Q 37.15625 56 41.109375 55.140625 
Q 45.0625 54.296875 48.78125 52.59375 
z
" id="DejaVuSans-99"/>
      <path d="M 9.421875 75.984375 
L 18.40625 75.984375 
L 18.40625 0 
L 9.421875 0 
z
" id="DejaVuSans-108"/>
     </defs>
     <g transform="translate(331.004688 226.242188)scale(0.1 -0.1)">
      <use xlink:href="#DejaVuSans-118"/>
      <use x="59.179688" xlink:href="#DejaVuSans-101"/>
      <use x="120.703125" xlink:href="#DejaVuSans-114"/>
      <use x="161.816406" xlink:href="#DejaVuSans-115"/>
      <use x="213.916016" xlink:href="#DejaVuSans-105"/>
      <use x="241.699219" xlink:href="#DejaVuSans-99"/>
      <use x="296.679688" xlink:href="#DejaVuSans-111"/>
      <use x="357.861328" xlink:href="#DejaVuSans-108"/>
      <use x="385.644531" xlink:href="#DejaVuSans-111"/>
      <use x="446.826172" xlink:href="#DejaVuSans-114"/>
     </g>
    </g>
    <g id="PathCollection_6">
     <g>
      <use style="fill:#0000ff;stroke:#0000ff;" x="313.004688" xlink:href="#m2e69105bbb" y="238.295313"/>
     </g>
    </g>
    <g id="text_20">
     <!-- virginica -->
     <defs>
      <path d="M 45.40625 27.984375 
Q 45.40625 37.75 41.375 43.109375 
Q 37.359375 48.484375 30.078125 48.484375 
Q 22.859375 48.484375 18.828125 43.109375 
Q 14.796875 37.75 14.796875 27.984375 
Q 14.796875 18.265625 18.828125 12.890625 
Q 22.859375 7.515625 30.078125 7.515625 
Q 37.359375 7.515625 41.375 12.890625 
Q 45.40625 18.265625 45.40625 27.984375 
z
M 54.390625 6.78125 
Q 54.390625 -7.171875 48.1875 -13.984375 
Q 42 -20.796875 29.203125 -20.796875 
Q 24.46875 -20.796875 20.265625 -20.09375 
Q 16.0625 -19.390625 12.109375 -17.921875 
L 12.109375 -9.1875 
Q 16.0625 -11.328125 19.921875 -12.34375 
Q 23.78125 -13.375 27.78125 -13.375 
Q 36.625 -13.375 41.015625 -8.765625 
Q 45.40625 -4.15625 45.40625 5.171875 
L 45.40625 9.625 
Q 42.625 4.78125 38.28125 2.390625 
Q 33.9375 0 27.875 0 
Q 17.828125 0 11.671875 7.65625 
Q 5.515625 15.328125 5.515625 27.984375 
Q 5.515625 40.671875 11.671875 48.328125 
Q 17.828125 56 27.875 56 
Q 33.9375 56 38.28125 53.609375 
Q 42.625 51.21875 45.40625 46.390625 
L 45.40625 54.6875 
L 54.390625 54.6875 
z
" id="DejaVuSans-103"/>
     </defs>
     <g transform="translate(331.004688 240.920313)scale(0.1 -0.1)">
      <use xlink:href="#DejaVuSans-118"/>
      <use x="59.179688" xlink:href="#DejaVuSans-105"/>
      <use x="86.962891" xlink:href="#DejaVuSans-114"/>
      <use x="128.060547" xlink:href="#DejaVuSans-103"/>
      <use x="191.537109" xlink:href="#DejaVuSans-105"/>
      <use x="219.320312" xlink:href="#DejaVuSans-110"/>
      <use x="282.699219" xlink:href="#DejaVuSans-105"/>
      <use x="310.482422" xlink:href="#DejaVuSans-99"/>
      <use x="365.462891" xlink:href="#DejaVuSans-97"/>
     </g>
    </g>
   </g>
  </g>
 </g>
 <defs>
  <clipPath id="p7af18e8ba8">
   <rect height="217.44" width="334.8" x="54" y="34.56"/>
  </clipPath>
 </defs>
</svg>
