<?xml version="1.0" encoding="utf-8" standalone="no"?>
<!DOCTYPE svg PUBLIC "-//W3C//DTD SVG 1.1//EN"
  "http://www.w3.org/Graphics/SVG/1.1/DTD/svg11.dtd">
<!-- Created with matplotlib (https://matplotlib.org/) -->
<svg height="288pt" version="1.1" viewBox="0 0 432 288" width="432pt" xmlns="http://www.w3.org/2000/svg" xmlns:xlink="http://www.w3.org/1999/xlink">
 <defs>
  <style type="text/css">
*{stroke-linecap:butt;stroke-linejoin:round;}
  </style>
 </defs>
 <g id="figure_1">
  <g id="patch_1">
   <path d="M 0 288 
L 432 288 
L 432 0 
L 0 0 
z
" style="fill:#ffffff;"/>
  </g>
  <g id="patch_2">
   <path d="M 0 288 
L 432 288 
L 432 0 
L 0 0 
z
" style="fill:#ffffff;"/>
  </g>
  <g id="pane3d_1">
   <g id="patch_3">
    <path d="M 57.268276 224.36215 
L 180.908936 153.751075 
L 178.85045 18.824902 
L 48.316013 82.2675 
" style="fill:#f2f2f2;opacity:0.5;stroke:#f2f2f2;stroke-linejoin:miter;"/>
   </g>
  </g>
  <g id="pane3d_2">
   <g id="patch_4">
    <path d="M 180.908936 153.751075 
L 381.195181 193.227223 
L 389.574918 54.232405 
L 178.85045 18.824902 
" style="fill:#e6e6e6;opacity:0.5;stroke:#e6e6e6;stroke-linejoin:miter;"/>
   </g>
  </g>
  <g id="pane3d_3">
   <g id="patch_5">
    <path d="M 57.268276 224.36215 
L 267.996469 270.338555 
L 381.195181 193.227223 
L 180.908936 153.751075 
" style="fill:#ececec;opacity:0.5;stroke:#ececec;stroke-linejoin:miter;"/>
   </g>
  </g>
  <g id="axis3d_1">
   <g id="line2d_1">
    <path d="M 57.268276 224.36215 
L 267.996469 270.338555 
" style="fill:none;stroke:#000000;stroke-linecap:square;stroke-width:0.8;"/>
   </g>
   <g id="text_1">
    <!-- petal length (cm) -->
    <defs>
     <path d="M 18.109375 8.203125 
L 18.109375 -20.796875 
L 9.078125 -20.796875 
L 9.078125 54.6875 
L 18.109375 54.6875 
L 18.109375 46.390625 
Q 20.953125 51.265625 25.265625 53.625 
Q 29.59375 56 35.59375 56 
Q 45.5625 56 51.78125 48.09375 
Q 58.015625 40.1875 58.015625 27.296875 
Q 58.015625 14.40625 51.78125 6.484375 
Q 45.5625 -1.421875 35.59375 -1.421875 
Q 29.59375 -1.421875 25.265625 0.953125 
Q 20.953125 3.328125 18.109375 8.203125 
z
M 48.6875 27.296875 
Q 48.6875 37.203125 44.609375 42.84375 
Q 40.53125 48.484375 33.40625 48.484375 
Q 26.265625 48.484375 22.1875 42.84375 
Q 18.109375 37.203125 18.109375 27.296875 
Q 18.109375 17.390625 22.1875 11.75 
Q 26.265625 6.109375 33.40625 6.109375 
Q 40.53125 6.109375 44.609375 11.75 
Q 48.6875 17.390625 48.6875 27.296875 
z
" id="DejaVuSans-112"/>
     <path d="M 56.203125 29.59375 
L 56.203125 25.203125 
L 14.890625 25.203125 
Q 15.484375 15.921875 20.484375 11.0625 
Q 25.484375 6.203125 34.421875 6.203125 
Q 39.59375 6.203125 44.453125 7.46875 
Q 49.3125 8.734375 54.109375 11.28125 
L 54.109375 2.78125 
Q 49.265625 0.734375 44.1875 -0.34375 
Q 39.109375 -1.421875 33.890625 -1.421875 
Q 20.796875 -1.421875 13.15625 6.1875 
Q 5.515625 13.8125 5.515625 26.8125 
Q 5.515625 40.234375 12.765625 48.109375 
Q 20.015625 56 32.328125 56 
Q 43.359375 56 49.78125 48.890625 
Q 56.203125 41.796875 56.203125 29.59375 
z
M 47.21875 32.234375 
Q 47.125 39.59375 43.09375 43.984375 
Q 39.0625 48.390625 32.421875 48.390625 
Q 24.90625 48.390625 20.390625 44.140625 
Q 15.875 39.890625 15.1875 32.171875 
z
" id="DejaVuSans-101"/>
     <path d="M 18.3125 70.21875 
L 18.3125 54.6875 
L 36.8125 54.6875 
L 36.8125 47.703125 
L 18.3125 47.703125 
L 18.3125 18.015625 
Q 18.3125 11.328125 20.140625 9.421875 
Q 21.96875 7.515625 27.59375 7.515625 
L 36.8125 7.515625 
L 36.8125 0 
L 27.59375 0 
Q 17.1875 0 13.234375 3.875 
Q 9.28125 7.765625 9.28125 18.015625 
L 9.28125 47.703125 
L 2.6875 47.703125 
L 2.6875 54.6875 
L 9.28125 54.6875 
L 9.28125 70.21875 
z
" id="DejaVuSans-116"/>
     <path d="M 34.28125 27.484375 
Q 23.390625 27.484375 19.1875 25 
Q 14.984375 22.515625 14.984375 16.5 
Q 14.984375 11.71875 18.140625 8.90625 
Q 21.296875 6.109375 26.703125 6.109375 
Q 34.1875 6.109375 38.703125 11.40625 
Q 43.21875 16.703125 43.21875 25.484375 
L 43.21875 27.484375 
z
M 52.203125 31.203125 
L 52.203125 0 
L 43.21875 0 
L 43.21875 8.296875 
Q 40.140625 3.328125 35.546875 0.953125 
Q 30.953125 -1.421875 24.3125 -1.421875 
Q 15.921875 -1.421875 10.953125 3.296875 
Q 6 8.015625 6 15.921875 
Q 6 25.140625 12.171875 29.828125 
Q 18.359375 34.515625 30.609375 34.515625 
L 43.21875 34.515625 
L 43.21875 35.40625 
Q 43.21875 41.609375 39.140625 45 
Q 35.0625 48.390625 27.6875 48.390625 
Q 23 48.390625 18.546875 47.265625 
Q 14.109375 46.140625 10.015625 43.890625 
L 10.015625 52.203125 
Q 14.9375 54.109375 19.578125 55.046875 
Q 24.21875 56 28.609375 56 
Q 40.484375 56 46.34375 49.84375 
Q 52.203125 43.703125 52.203125 31.203125 
z
" id="DejaVuSans-97"/>
     <path d="M 9.421875 75.984375 
L 18.40625 75.984375 
L 18.40625 0 
L 9.421875 0 
z
" id="DejaVuSans-108"/>
     <path id="DejaVuSans-32"/>
     <path d="M 54.890625 33.015625 
L 54.890625 0 
L 45.90625 0 
L 45.90625 32.71875 
Q 45.90625 40.484375 42.875 44.328125 
Q 39.84375 48.1875 33.796875 48.1875 
Q 26.515625 48.1875 22.3125 43.546875 
Q 18.109375 38.921875 18.109375 30.90625 
L 18.109375 0 
L 9.078125 0 
L 9.078125 54.6875 
L 18.109375 54.6875 
L 18.109375 46.1875 
Q 21.34375 51.125 25.703125 53.5625 
Q 30.078125 56 35.796875 56 
Q 45.21875 56 50.046875 50.171875 
Q 54.890625 44.34375 54.890625 33.015625 
z
" id="DejaVuSans-110"/>
     <path d="M 45.40625 27.984375 
Q 45.40625 37.75 41.375 43.109375 
Q 37.359375 48.484375 30.078125 48.484375 
Q 22.859375 48.484375 18.828125 43.109375 
Q 14.796875 37.75 14.796875 27.984375 
Q 14.796875 18.265625 18.828125 12.890625 
Q 22.859375 7.515625 30.078125 7.515625 
Q 37.359375 7.515625 41.375 12.890625 
Q 45.40625 18.265625 45.40625 27.984375 
z
M 54.390625 6.78125 
Q 54.390625 -7.171875 48.1875 -13.984375 
Q 42 -20.796875 29.203125 -20.796875 
Q 24.46875 -20.796875 20.265625 -20.09375 
Q 16.0625 -19.390625 12.109375 -17.921875 
L 12.109375 -9.1875 
Q 16.0625 -11.328125 19.921875 -12.34375 
Q 23.78125 -13.375 27.78125 -13.375 
Q 36.625 -13.375 41.015625 -8.765625 
Q 45.40625 -4.15625 45.40625 5.171875 
L 45.40625 9.625 
Q 42.625 4.78125 38.28125 2.390625 
Q 33.9375 0 27.875 0 
Q 17.828125 0 11.671875 7.65625 
Q 5.515625 15.328125 5.515625 27.984375 
Q 5.515625 40.671875 11.671875 48.328125 
Q 17.828125 56 27.875 56 
Q 33.9375 56 38.28125 53.609375 
Q 42.625 51.21875 45.40625 46.390625 
L 45.40625 54.6875 
L 54.390625 54.6875 
z
" id="DejaVuSans-103"/>
     <path d="M 54.890625 33.015625 
L 54.890625 0 
L 45.90625 0 
L 45.90625 32.71875 
Q 45.90625 40.484375 42.875 44.328125 
Q 39.84375 48.1875 33.796875 48.1875 
Q 26.515625 48.1875 22.3125 43.546875 
Q 18.109375 38.921875 18.109375 30.90625 
L 18.109375 0 
L 9.078125 0 
L 9.078125 75.984375 
L 18.109375 75.984375 
L 18.109375 46.1875 
Q 21.34375 51.125 25.703125 53.5625 
Q 30.078125 56 35.796875 56 
Q 45.21875 56 50.046875 50.171875 
Q 54.890625 44.34375 54.890625 33.015625 
z
" id="DejaVuSans-104"/>
     <path d="M 31 75.875 
Q 24.46875 64.65625 21.28125 53.65625 
Q 18.109375 42.671875 18.109375 31.390625 
Q 18.109375 20.125 21.3125 9.0625 
Q 24.515625 -2 31 -13.1875 
L 23.1875 -13.1875 
Q 15.875 -1.703125 12.234375 9.375 
Q 8.59375 20.453125 8.59375 31.390625 
Q 8.59375 42.28125 12.203125 53.3125 
Q 15.828125 64.359375 23.1875 75.875 
z
" id="DejaVuSans-40"/>
     <path d="M 48.78125 52.59375 
L 48.78125 44.1875 
Q 44.96875 46.296875 41.140625 47.34375 
Q 37.3125 48.390625 33.40625 48.390625 
Q 24.65625 48.390625 19.8125 42.84375 
Q 14.984375 37.3125 14.984375 27.296875 
Q 14.984375 17.28125 19.8125 11.734375 
Q 24.65625 6.203125 33.40625 6.203125 
Q 37.3125 6.203125 41.140625 7.25 
Q 44.96875 8.296875 48.78125 10.40625 
L 48.78125 2.09375 
Q 45.015625 0.34375 40.984375 -0.53125 
Q 36.96875 -1.421875 32.421875 -1.421875 
Q 20.0625 -1.421875 12.78125 6.34375 
Q 5.515625 14.109375 5.515625 27.296875 
Q 5.515625 40.671875 12.859375 48.328125 
Q 20.21875 56 33.015625 56 
Q 37.15625 56 41.109375 55.140625 
Q 45.0625 54.296875 48.78125 52.59375 
z
" id="DejaVuSans-99"/>
     <path d="M 52 44.1875 
Q 55.375 50.25 60.0625 53.125 
Q 64.75 56 71.09375 56 
Q 79.640625 56 84.28125 50.015625 
Q 88.921875 44.046875 88.921875 33.015625 
L 88.921875 0 
L 79.890625 0 
L 79.890625 32.71875 
Q 79.890625 40.578125 77.09375 44.375 
Q 74.3125 48.1875 68.609375 48.1875 
Q 61.625 48.1875 57.5625 43.546875 
Q 53.515625 38.921875 53.515625 30.90625 
L 53.515625 0 
L 44.484375 0 
L 44.484375 32.71875 
Q 44.484375 40.625 41.703125 44.40625 
Q 38.921875 48.1875 33.109375 48.1875 
Q 26.21875 48.1875 22.15625 43.53125 
Q 18.109375 38.875 18.109375 30.90625 
L 18.109375 0 
L 9.078125 0 
L 9.078125 54.6875 
L 18.109375 54.6875 
L 18.109375 46.1875 
Q 21.1875 51.21875 25.484375 53.609375 
Q 29.78125 56 35.6875 56 
Q 41.65625 56 45.828125 52.96875 
Q 50 49.953125 52 44.1875 
z
" id="DejaVuSans-109"/>
     <path d="M 8.015625 75.875 
L 15.828125 75.875 
Q 23.140625 64.359375 26.78125 53.3125 
Q 30.421875 42.28125 30.421875 31.390625 
Q 30.421875 20.453125 26.78125 9.375 
Q 23.140625 -1.703125 15.828125 -13.1875 
L 8.015625 -13.1875 
Q 14.5 -2 17.703125 9.0625 
Q 20.90625 20.125 20.90625 31.390625 
Q 20.90625 42.671875 17.703125 53.65625 
Q 14.5 64.65625 8.015625 75.875 
z
" id="DejaVuSans-41"/>
    </defs>
    <g transform="translate(100.625322 269.225928)rotate(-347.692154)scale(0.1 -0.1)">
     <use xlink:href="#DejaVuSans-112"/>
     <use x="63.476562" xlink:href="#DejaVuSans-101"/>
     <use x="125" xlink:href="#DejaVuSans-116"/>
     <use x="164.208984" xlink:href="#DejaVuSans-97"/>
     <use x="225.488281" xlink:href="#DejaVuSans-108"/>
     <use x="253.271484" xlink:href="#DejaVuSans-32"/>
     <use x="285.058594" xlink:href="#DejaVuSans-108"/>
     <use x="312.841797" xlink:href="#DejaVuSans-101"/>
     <use x="374.365234" xlink:href="#DejaVuSans-110"/>
     <use x="437.744141" xlink:href="#DejaVuSans-103"/>
     <use x="501.220703" xlink:href="#DejaVuSans-116"/>
     <use x="540.429688" xlink:href="#DejaVuSans-104"/>
     <use x="603.808594" xlink:href="#DejaVuSans-32"/>
     <use x="635.595703" xlink:href="#DejaVuSans-40"/>
     <use x="674.609375" xlink:href="#DejaVuSans-99"/>
     <use x="729.589844" xlink:href="#DejaVuSans-109"/>
     <use x="827.001953" xlink:href="#DejaVuSans-41"/>
    </g>
   </g>
   <g id="Line3DCollection_1">
    <path d="M 79.953368 229.311554 
L 202.534553 158.013455 
L 201.558946 22.640553 
" style="fill:none;stroke:#b0b0b0;stroke-width:0.8;"/>
    <path d="M 104.736159 234.718631 
L 226.142035 162.666458 
L 226.360734 26.807935 
" style="fill:none;stroke:#b0b0b0;stroke-width:0.8;"/>
    <path d="M 129.791704 240.185218 
L 249.990394 167.366937 
L 251.428513 31.020011 
" style="fill:none;stroke:#b0b0b0;stroke-width:0.8;"/>
    <path d="M 155.124529 245.712301 
L 274.083337 172.115623 
L 276.766584 35.277504 
" style="fill:none;stroke:#b0b0b0;stroke-width:0.8;"/>
    <path d="M 180.739265 251.300891 
L 298.424644 176.913262 
L 302.379344 39.581151 
" style="fill:none;stroke:#b0b0b0;stroke-width:0.8;"/>
    <path d="M 206.640642 256.95202 
L 323.018176 181.760614 
L 328.271282 43.931709 
" style="fill:none;stroke:#b0b0b0;stroke-width:0.8;"/>
    <path d="M 232.833499 262.666744 
L 347.867875 186.658456 
L 354.44699 48.329947 
" style="fill:none;stroke:#b0b0b0;stroke-width:0.8;"/>
    <path d="M 259.322785 268.446142 
L 372.977762 191.60758 
L 380.911157 52.776655 
" style="fill:none;stroke:#b0b0b0;stroke-width:0.8;"/>
   </g>
   <g id="xtick_1">
    <g id="line2d_2">
     <path d="M 81.009632 228.697189 
L 77.836891 230.542581 
" style="fill:none;stroke:#000000;stroke-linecap:square;stroke-width:0.8;"/>
    </g>
    <g id="text_2">
     <!-- 4.5 -->
     <defs>
      <path d="M 37.796875 64.3125 
L 12.890625 25.390625 
L 37.796875 25.390625 
z
M 35.203125 72.90625 
L 47.609375 72.90625 
L 47.609375 25.390625 
L 58.015625 25.390625 
L 58.015625 17.1875 
L 47.609375 17.1875 
L 47.609375 0 
L 37.796875 0 
L 37.796875 17.1875 
L 4.890625 17.1875 
L 4.890625 26.703125 
z
" id="DejaVuSans-52"/>
      <path d="M 10.6875 12.40625 
L 21 12.40625 
L 21 0 
L 10.6875 0 
z
" id="DejaVuSans-46"/>
      <path d="M 10.796875 72.90625 
L 49.515625 72.90625 
L 49.515625 64.59375 
L 19.828125 64.59375 
L 19.828125 46.734375 
Q 21.96875 47.46875 24.109375 47.828125 
Q 26.265625 48.1875 28.421875 48.1875 
Q 40.625 48.1875 47.75 41.5 
Q 54.890625 34.8125 54.890625 23.390625 
Q 54.890625 11.625 47.5625 5.09375 
Q 40.234375 -1.421875 26.90625 -1.421875 
Q 22.3125 -1.421875 17.546875 -0.640625 
Q 12.796875 0.140625 7.71875 1.703125 
L 7.71875 11.625 
Q 12.109375 9.234375 16.796875 8.0625 
Q 21.484375 6.890625 26.703125 6.890625 
Q 35.15625 6.890625 40.078125 11.328125 
Q 45.015625 15.765625 45.015625 23.390625 
Q 45.015625 31 40.078125 35.4375 
Q 35.15625 39.890625 26.703125 39.890625 
Q 22.75 39.890625 18.8125 39.015625 
Q 14.890625 38.140625 10.796875 36.28125 
z
" id="DejaVuSans-53"/>
     </defs>
     <g transform="translate(64.337778 249.935153)scale(0.1 -0.1)">
      <use xlink:href="#DejaVuSans-52"/>
      <use x="63.623047" xlink:href="#DejaVuSans-46"/>
      <use x="95.410156" xlink:href="#DejaVuSans-53"/>
     </g>
    </g>
   </g>
   <g id="xtick_2">
    <g id="line2d_3">
     <path d="M 105.782705 234.097525 
L 102.639133 235.963178 
" style="fill:none;stroke:#000000;stroke-linecap:square;stroke-width:0.8;"/>
    </g>
    <g id="text_3">
     <!-- 5.0 -->
     <defs>
      <path d="M 31.78125 66.40625 
Q 24.171875 66.40625 20.328125 58.90625 
Q 16.5 51.421875 16.5 36.375 
Q 16.5 21.390625 20.328125 13.890625 
Q 24.171875 6.390625 31.78125 6.390625 
Q 39.453125 6.390625 43.28125 13.890625 
Q 47.125 21.390625 47.125 36.375 
Q 47.125 51.421875 43.28125 58.90625 
Q 39.453125 66.40625 31.78125 66.40625 
z
M 31.78125 74.21875 
Q 44.046875 74.21875 50.515625 64.515625 
Q 56.984375 54.828125 56.984375 36.375 
Q 56.984375 17.96875 50.515625 8.265625 
Q 44.046875 -1.421875 31.78125 -1.421875 
Q 19.53125 -1.421875 13.0625 8.265625 
Q 6.59375 17.96875 6.59375 36.375 
Q 6.59375 54.828125 13.0625 64.515625 
Q 19.53125 74.21875 31.78125 74.21875 
z
" id="DejaVuSans-48"/>
     </defs>
     <g transform="translate(89.118244 255.422287)scale(0.1 -0.1)">
      <use xlink:href="#DejaVuSans-53"/>
      <use x="63.623047" xlink:href="#DejaVuSans-46"/>
      <use x="95.410156" xlink:href="#DejaVuSans-48"/>
     </g>
    </g>
   </g>
   <g id="xtick_3">
    <g id="line2d_4">
     <path d="M 130.828254 239.557259 
L 127.714686 241.443508 
" style="fill:none;stroke:#000000;stroke-linecap:square;stroke-width:0.8;"/>
    </g>
    <g id="text_4">
     <!-- 5.5 -->
     <g transform="translate(114.171878 260.969908)scale(0.1 -0.1)">
      <use xlink:href="#DejaVuSans-53"/>
      <use x="63.623047" xlink:href="#DejaVuSans-46"/>
      <use x="95.410156" xlink:href="#DejaVuSans-53"/>
     </g>
    </g>
   </g>
   <g id="xtick_4">
    <g id="line2d_5">
     <path d="M 156.150797 245.077376 
L 153.068093 246.984564 
" style="fill:none;stroke:#000000;stroke-linecap:square;stroke-width:0.8;"/>
    </g>
    <g id="text_5">
     <!-- 6.0 -->
     <defs>
      <path d="M 33.015625 40.375 
Q 26.375 40.375 22.484375 35.828125 
Q 18.609375 31.296875 18.609375 23.390625 
Q 18.609375 15.53125 22.484375 10.953125 
Q 26.375 6.390625 33.015625 6.390625 
Q 39.65625 6.390625 43.53125 10.953125 
Q 47.40625 15.53125 47.40625 23.390625 
Q 47.40625 31.296875 43.53125 35.828125 
Q 39.65625 40.375 33.015625 40.375 
z
M 52.59375 71.296875 
L 52.59375 62.3125 
Q 48.875 64.0625 45.09375 64.984375 
Q 41.3125 65.921875 37.59375 65.921875 
Q 27.828125 65.921875 22.671875 59.328125 
Q 17.53125 52.734375 16.796875 39.40625 
Q 19.671875 43.65625 24.015625 45.921875 
Q 28.375 48.1875 33.59375 48.1875 
Q 44.578125 48.1875 50.953125 41.515625 
Q 57.328125 34.859375 57.328125 23.390625 
Q 57.328125 12.15625 50.6875 5.359375 
Q 44.046875 -1.421875 33.015625 -1.421875 
Q 20.359375 -1.421875 13.671875 8.265625 
Q 6.984375 17.96875 6.984375 36.375 
Q 6.984375 53.65625 15.1875 63.9375 
Q 23.390625 74.21875 37.203125 74.21875 
Q 40.921875 74.21875 44.703125 73.484375 
Q 48.484375 72.75 52.59375 71.296875 
z
" id="DejaVuSans-54"/>
     </defs>
     <g transform="translate(139.503221 266.579023)scale(0.1 -0.1)">
      <use xlink:href="#DejaVuSans-54"/>
      <use x="63.623047" xlink:href="#DejaVuSans-46"/>
      <use x="95.410156" xlink:href="#DejaVuSans-48"/>
     </g>
    </g>
   </g>
   <g id="xtick_5">
    <g id="line2d_6">
     <path d="M 181.754957 250.658883 
L 178.703998 252.58736 
" style="fill:none;stroke:#000000;stroke-linecap:square;stroke-width:0.8;"/>
    </g>
    <g id="text_6">
     <!-- 6.5 -->
     <g transform="translate(165.116916 272.250658)scale(0.1 -0.1)">
      <use xlink:href="#DejaVuSans-54"/>
      <use x="63.623047" xlink:href="#DejaVuSans-46"/>
      <use x="95.410156" xlink:href="#DejaVuSans-53"/>
     </g>
    </g>
   </g>
   <g id="xtick_6">
    <g id="line2d_7">
     <path d="M 207.645457 256.30281 
L 204.62715 258.252935 
" style="fill:none;stroke:#000000;stroke-linecap:square;stroke-width:0.8;"/>
    </g>
    <g id="text_7">
     <!-- 7.0 -->
     <defs>
      <path d="M 8.203125 72.90625 
L 55.078125 72.90625 
L 55.078125 68.703125 
L 28.609375 0 
L 18.3125 0 
L 43.21875 64.59375 
L 8.203125 64.59375 
z
" id="DejaVuSans-55"/>
     </defs>
     <g transform="translate(191.01771 277.985866)scale(0.1 -0.1)">
      <use xlink:href="#DejaVuSans-55"/>
      <use x="63.623047" xlink:href="#DejaVuSans-46"/>
      <use x="95.410156" xlink:href="#DejaVuSans-48"/>
     </g>
    </g>
   </g>
   <g id="xtick_7">
    <g id="line2d_8">
     <path d="M 233.827128 262.01021 
L 230.842402 263.982349 
" style="fill:none;stroke:#000000;stroke-linecap:square;stroke-width:0.8;"/>
    </g>
    <g id="text_8">
     <!-- 7.5 -->
     <g transform="translate(217.210458 283.785721)scale(0.1 -0.1)">
      <use xlink:href="#DejaVuSans-55"/>
      <use x="63.623047" xlink:href="#DejaVuSans-46"/>
      <use x="95.410156" xlink:href="#DejaVuSans-53"/>
     </g>
    </g>
   </g>
   <g id="xtick_8">
    <g id="line2d_9">
     <path d="M 260.304908 267.782159 
L 257.354721 269.776688 
" style="fill:none;stroke:#000000;stroke-linecap:square;stroke-width:0.8;"/>
    </g>
    <g id="text_9">
     <!-- 8.0 -->
     <defs>
      <path d="M 31.78125 34.625 
Q 24.75 34.625 20.71875 30.859375 
Q 16.703125 27.09375 16.703125 20.515625 
Q 16.703125 13.921875 20.71875 10.15625 
Q 24.75 6.390625 31.78125 6.390625 
Q 38.8125 6.390625 42.859375 10.171875 
Q 46.921875 13.96875 46.921875 20.515625 
Q 46.921875 27.09375 42.890625 30.859375 
Q 38.875 34.625 31.78125 34.625 
z
M 21.921875 38.8125 
Q 15.578125 40.375 12.03125 44.71875 
Q 8.5 49.078125 8.5 55.328125 
Q 8.5 64.0625 14.71875 69.140625 
Q 20.953125 74.21875 31.78125 74.21875 
Q 42.671875 74.21875 48.875 69.140625 
Q 55.078125 64.0625 55.078125 55.328125 
Q 55.078125 49.078125 51.53125 44.71875 
Q 48 40.375 41.703125 38.8125 
Q 48.828125 37.15625 52.796875 32.3125 
Q 56.78125 27.484375 56.78125 20.515625 
Q 56.78125 9.90625 50.3125 4.234375 
Q 43.84375 -1.421875 31.78125 -1.421875 
Q 19.734375 -1.421875 13.25 4.234375 
Q 6.78125 9.90625 6.78125 20.515625 
Q 6.78125 27.484375 10.78125 32.3125 
Q 14.796875 37.15625 21.921875 38.8125 
z
M 18.3125 54.390625 
Q 18.3125 48.734375 21.84375 45.5625 
Q 25.390625 42.390625 31.78125 42.390625 
Q 38.140625 42.390625 41.71875 45.5625 
Q 45.3125 48.734375 45.3125 54.390625 
Q 45.3125 60.0625 41.71875 63.234375 
Q 38.140625 66.40625 31.78125 66.40625 
Q 25.390625 66.40625 21.84375 63.234375 
Q 18.3125 60.0625 18.3125 54.390625 
z
" id="DejaVuSans-56"/>
     </defs>
     <g transform="translate(243.700124 289.651323)scale(0.1 -0.1)">
      <use xlink:href="#DejaVuSans-56"/>
      <use x="63.623047" xlink:href="#DejaVuSans-46"/>
      <use x="95.410156" xlink:href="#DejaVuSans-48"/>
     </g>
    </g>
   </g>
  </g>
  <g id="axis3d_2">
   <g id="line2d_10">
    <path d="M 381.195181 193.227223 
L 267.996469 270.338555 
" style="fill:none;stroke:#000000;stroke-linecap:square;stroke-width:0.8;"/>
   </g>
   <g id="Line3DCollection_2">
    <path d="M 57.254143 77.923372 
L 65.703663 219.544707 
L 275.743623 265.061169 
" style="fill:none;stroke:#b0b0b0;stroke-width:0.8;"/>
    <path d="M 77.677866 67.996995 
L 84.995502 208.527155 
L 293.448125 253.000804 
" style="fill:none;stroke:#b0b0b0;stroke-width:0.8;"/>
    <path d="M 97.622616 58.303409 
L 103.857623 197.755014 
L 310.740345 241.221287 
" style="fill:none;stroke:#b0b0b0;stroke-width:0.8;"/>
    <path d="M 117.105048 48.83452 
L 122.304226 187.220175 
L 327.634518 229.712922 
" style="fill:none;stroke:#b0b0b0;stroke-width:0.8;"/>
    <path d="M 136.141052 39.582605 
L 140.348891 176.914882 
L 344.14423 218.466451 
" style="fill:none;stroke:#b0b0b0;stroke-width:0.8;"/>
    <path d="M 154.745798 30.540291 
L 158.004613 166.831714 
L 360.282459 207.473037 
" style="fill:none;stroke:#b0b0b0;stroke-width:0.8;"/>
    <path d="M 172.933779 21.700533 
L 175.283834 156.963566 
L 376.061603 196.724233 
" style="fill:none;stroke:#b0b0b0;stroke-width:0.8;"/>
   </g>
   <g id="xtick_9">
    <g id="line2d_11">
     <path d="M 273.985773 264.680236 
L 279.263251 265.823885 
" style="fill:none;stroke:#000000;stroke-linecap:square;stroke-width:0.8;"/>
    </g>
    <g id="text_10">
     <!-- 1 -->
     <defs>
      <path d="M 12.40625 8.296875 
L 28.515625 8.296875 
L 28.515625 63.921875 
L 10.984375 60.40625 
L 10.984375 69.390625 
L 28.421875 72.90625 
L 38.28125 72.90625 
L 38.28125 8.296875 
L 54.390625 8.296875 
L 54.390625 0 
L 12.40625 0 
z
" id="DejaVuSans-49"/>
     </defs>
     <g transform="translate(285.86073 284.049744)scale(0.1 -0.1)">
      <use xlink:href="#DejaVuSans-49"/>
     </g>
    </g>
   </g>
   <g id="xtick_10">
    <g id="line2d_12">
     <path d="M 291.704467 252.628792 
L 296.939294 253.745649 
" style="fill:none;stroke:#000000;stroke-linecap:square;stroke-width:0.8;"/>
    </g>
    <g id="text_11">
     <!-- 2 -->
     <defs>
      <path d="M 19.1875 8.296875 
L 53.609375 8.296875 
L 53.609375 0 
L 7.328125 0 
L 7.328125 8.296875 
Q 12.9375 14.109375 22.625 23.890625 
Q 32.328125 33.6875 34.8125 36.53125 
Q 39.546875 41.84375 41.421875 45.53125 
Q 43.3125 49.21875 43.3125 52.78125 
Q 43.3125 58.59375 39.234375 62.25 
Q 35.15625 65.921875 28.609375 65.921875 
Q 23.96875 65.921875 18.8125 64.3125 
Q 13.671875 62.703125 7.8125 59.421875 
L 7.8125 69.390625 
Q 13.765625 71.78125 18.9375 73 
Q 24.125 74.21875 28.421875 74.21875 
Q 39.75 74.21875 46.484375 68.546875 
Q 53.21875 62.890625 53.21875 53.421875 
Q 53.21875 48.921875 51.53125 44.890625 
Q 49.859375 40.875 45.40625 35.40625 
Q 44.1875 33.984375 37.640625 27.21875 
Q 31.109375 20.453125 19.1875 8.296875 
z
" id="DejaVuSans-50"/>
     </defs>
     <g transform="translate(303.400917 271.860514)scale(0.1 -0.1)">
      <use xlink:href="#DejaVuSans-50"/>
     </g>
    </g>
   </g>
   <g id="xtick_11">
    <g id="line2d_13">
     <path d="M 309.010697 240.857886 
L 314.203418 241.948882 
" style="fill:none;stroke:#000000;stroke-linecap:square;stroke-width:0.8;"/>
    </g>
    <g id="text_12">
     <!-- 3 -->
     <defs>
      <path d="M 40.578125 39.3125 
Q 47.65625 37.796875 51.625 33 
Q 55.609375 28.21875 55.609375 21.1875 
Q 55.609375 10.40625 48.1875 4.484375 
Q 40.765625 -1.421875 27.09375 -1.421875 
Q 22.515625 -1.421875 17.65625 -0.515625 
Q 12.796875 0.390625 7.625 2.203125 
L 7.625 11.71875 
Q 11.71875 9.328125 16.59375 8.109375 
Q 21.484375 6.890625 26.8125 6.890625 
Q 36.078125 6.890625 40.9375 10.546875 
Q 45.796875 14.203125 45.796875 21.1875 
Q 45.796875 27.640625 41.28125 31.265625 
Q 36.765625 34.90625 28.71875 34.90625 
L 20.21875 34.90625 
L 20.21875 43.015625 
L 29.109375 43.015625 
Q 36.375 43.015625 40.234375 45.921875 
Q 44.09375 48.828125 44.09375 54.296875 
Q 44.09375 59.90625 40.109375 62.90625 
Q 36.140625 65.921875 28.71875 65.921875 
Q 24.65625 65.921875 20.015625 65.03125 
Q 15.375 64.15625 9.8125 62.3125 
L 9.8125 71.09375 
Q 15.4375 72.65625 20.34375 73.4375 
Q 25.25 74.21875 29.59375 74.21875 
Q 40.828125 74.21875 47.359375 69.109375 
Q 53.90625 64.015625 53.90625 55.328125 
Q 53.90625 49.265625 50.4375 45.09375 
Q 46.96875 40.921875 40.578125 39.3125 
z
" id="DejaVuSans-51"/>
     </defs>
     <g transform="translate(320.532824 259.955011)scale(0.1 -0.1)">
      <use xlink:href="#DejaVuSans-51"/>
     </g>
    </g>
   </g>
   <g id="xtick_12">
    <g id="line2d_14">
     <path d="M 325.9187 229.357836 
L 331.069856 230.423859 
" style="fill:none;stroke:#000000;stroke-linecap:square;stroke-width:0.8;"/>
    </g>
    <g id="text_13">
     <!-- 4 -->
     <g transform="translate(337.270542 248.323443)scale(0.1 -0.1)">
      <use xlink:href="#DejaVuSans-52"/>
     </g>
    </g>
   </g>
   <g id="xtick_13">
    <g id="line2d_15">
     <path d="M 342.442065 218.119399 
L 347.552192 219.161296 
" style="fill:none;stroke:#000000;stroke-linecap:square;stroke-width:0.8;"/>
    </g>
    <g id="text_14">
     <!-- 5 -->
     <g transform="translate(353.627521 236.956462)scale(0.1 -0.1)">
      <use xlink:href="#DejaVuSans-53"/>
     </g>
    </g>
   </g>
   <g id="xtick_14">
    <g id="line2d_16">
     <path d="M 358.59377 207.133749 
L 363.663399 208.15233 
" style="fill:none;stroke:#000000;stroke-linecap:square;stroke-width:0.8;"/>
    </g>
    <g id="text_15">
     <!-- 6 -->
     <g transform="translate(369.616606 225.845142)scale(0.1 -0.1)">
      <use xlink:href="#DejaVuSans-54"/>
     </g>
    </g>
   </g>
   <g id="xtick_15">
    <g id="line2d_17">
     <path d="M 374.386215 196.39245 
L 379.415873 197.38849 
" style="fill:none;stroke:#000000;stroke-linecap:square;stroke-width:0.8;"/>
    </g>
    <g id="text_16">
     <!-- 7 -->
     <g transform="translate(385.250071 214.980954)scale(0.1 -0.1)">
      <use xlink:href="#DejaVuSans-55"/>
     </g>
    </g>
   </g>
  </g>
  <g id="axis3d_3">
   <g id="line2d_18">
    <path d="M 381.195181 193.227223 
L 389.574918 54.232405 
" style="fill:none;stroke:#000000;stroke-linecap:square;stroke-width:0.8;"/>
   </g>
   <g id="Line3DCollection_3">
    <path d="M 382.40571 173.148153 
L 180.611014 134.223405 
L 55.976943 203.865493 
" style="fill:none;stroke:#b0b0b0;stroke-width:0.8;"/>
    <path d="M 383.828982 149.540331 
L 180.260975 111.279614 
L 54.457847 179.753662 
" style="fill:none;stroke:#b0b0b0;stroke-width:0.8;"/>
    <path d="M 385.27771 125.510247 
L 179.90494 87.942874 
L 52.910667 155.196074 
" style="fill:none;stroke:#b0b0b0;stroke-width:0.8;"/>
    <path d="M 386.752586 101.046471 
L 179.542756 64.203003 
L 51.334617 130.180254 
" style="fill:none;stroke:#b0b0b0;stroke-width:0.8;"/>
    <path d="M 388.254321 76.137153 
L 179.17426 40.049466 
L 49.728883 104.693255 
" style="fill:none;stroke:#b0b0b0;stroke-width:0.8;"/>
   </g>
   <g id="xtick_16">
    <g id="line2d_19">
     <path d="M 380.721565 172.823293 
L 385.777527 173.798552 
" style="fill:none;stroke:#000000;stroke-linecap:square;stroke-width:0.8;"/>
    </g>
    <g id="text_17">
     <!-- −0.04 -->
     <defs>
      <path d="M 10.59375 35.5 
L 73.1875 35.5 
L 73.1875 27.203125 
L 10.59375 27.203125 
z
" id="DejaVuSans-8722"/>
     </defs>
     <g transform="translate(386.427239 178.926279)scale(0.1 -0.1)">
      <use xlink:href="#DejaVuSans-8722"/>
      <use x="83.789062" xlink:href="#DejaVuSans-48"/>
      <use x="147.412109" xlink:href="#DejaVuSans-46"/>
      <use x="179.199219" xlink:href="#DejaVuSans-48"/>
      <use x="242.822266" xlink:href="#DejaVuSans-52"/>
     </g>
    </g>
   </g>
   <g id="xtick_17">
    <g id="line2d_20">
     <path d="M 382.129413 149.220896 
L 387.23171 150.179876 
" style="fill:none;stroke:#000000;stroke-linecap:square;stroke-width:0.8;"/>
    </g>
    <g id="text_18">
     <!-- −0.02 -->
     <g transform="translate(388.018834 155.348879)scale(0.1 -0.1)">
      <use xlink:href="#DejaVuSans-8722"/>
      <use x="83.789062" xlink:href="#DejaVuSans-48"/>
      <use x="147.412109" xlink:href="#DejaVuSans-46"/>
      <use x="179.199219" xlink:href="#DejaVuSans-48"/>
      <use x="242.822266" xlink:href="#DejaVuSans-50"/>
     </g>
    </g>
   </g>
   <g id="xtick_18">
    <g id="line2d_21">
     <path d="M 383.562433 125.196484 
L 388.711921 126.138443 
" style="fill:none;stroke:#000000;stroke-linecap:square;stroke-width:0.8;"/>
    </g>
    <g id="text_19">
     <!-- 0.00 -->
     <g transform="translate(393.828684 131.3506)scale(0.1 -0.1)">
      <use xlink:href="#DejaVuSans-48"/>
      <use x="63.623047" xlink:href="#DejaVuSans-46"/>
      <use x="95.410156" xlink:href="#DejaVuSans-48"/>
      <use x="159.033203" xlink:href="#DejaVuSans-48"/>
     </g>
    </g>
   </g>
   <g id="xtick_19">
    <g id="line2d_22">
     <path d="M 385.021307 100.738637 
L 390.218865 101.662802 
" style="fill:none;stroke:#000000;stroke-linecap:square;stroke-width:0.8;"/>
    </g>
    <g id="text_20">
     <!-- 0.02 -->
     <g transform="translate(395.47787 106.920071)scale(0.1 -0.1)">
      <use xlink:href="#DejaVuSans-48"/>
      <use x="63.623047" xlink:href="#DejaVuSans-46"/>
      <use x="95.410156" xlink:href="#DejaVuSans-48"/>
      <use x="159.033203" xlink:href="#DejaVuSans-50"/>
     </g>
    </g>
   </g>
   <g id="xtick_20">
    <g id="line2d_23">
     <path d="M 386.506741 75.835517 
L 391.753275 76.741081 
" style="fill:none;stroke:#000000;stroke-linecap:square;stroke-width:0.8;"/>
    </g>
    <g id="text_21">
     <!-- 0.04 -->
     <g transform="translate(397.15703 82.045507)scale(0.1 -0.1)">
      <use xlink:href="#DejaVuSans-48"/>
      <use x="63.623047" xlink:href="#DejaVuSans-46"/>
      <use x="95.410156" xlink:href="#DejaVuSans-48"/>
      <use x="159.033203" xlink:href="#DejaVuSans-52"/>
     </g>
    </g>
   </g>
  </g>
  <g id="axes_1">
   <g id="Path3DCollection_1">
    <defs>
     <path d="M 0 2.236068 
C 0.593012 2.236068 1.161816 2.000462 1.581139 1.581139 
C 2.000462 1.161816 2.236068 0.593012 2.236068 0 
C 2.236068 -0.593012 2.000462 -1.161816 1.581139 -1.581139 
C 1.161816 -2.000462 0.593012 -2.236068 0 -2.236068 
C -0.593012 -2.236068 -1.161816 -2.000462 -1.581139 -1.581139 
C -2.000462 -1.161816 -2.236068 -0.593012 -2.236068 0 
C -2.236068 0.593012 -2.000462 1.161816 -1.581139 1.581139 
C -1.161816 2.000462 -0.593012 2.236068 0 2.236068 
z
" id="C0_0_1d32520fde"/>
    </defs>
    <g clip-path="url(#p009e556614)">
     <use style="fill:#0000ff;fill-opacity:0.3;stroke:#0000ff;stroke-opacity:0.3;" x="267.940076" xlink:href="#C0_0_1d32520fde" y="121.187867"/>
    </g>
    <g clip-path="url(#p009e556614)">
     <use style="fill:#0000ff;fill-opacity:0.501188;stroke:#0000ff;stroke-opacity:0.501188;" x="227.118775" xlink:href="#C0_0_1d32520fde" y="125.457782"/>
    </g>
    <g clip-path="url(#p009e556614)">
     <use style="fill:#0000ff;fill-opacity:0.705861;stroke:#0000ff;stroke-opacity:0.705861;" x="306.998805" xlink:href="#C0_0_1d32520fde" y="129.801649"/>
    </g>
    <g clip-path="url(#p009e556614)">
     <use style="fill:#0000ff;fill-opacity:0.488456;stroke:#0000ff;stroke-opacity:0.488456;" x="261.073003" xlink:href="#C0_0_1d32520fde" y="125.187562"/>
    </g>
    <g clip-path="url(#p009e556614)">
     <use style="fill:#0000ff;fill-opacity:0.483366;stroke:#0000ff;stroke-opacity:0.483366;" x="274.648884" xlink:href="#C0_0_1d32520fde" y="125.07952"/>
    </g>
    <g clip-path="url(#p009e556614)">
     <use style="fill:#0000ff;fill-opacity:0.597633;stroke:#0000ff;stroke-opacity:0.597633;" x="344.371097" xlink:href="#C0_0_1d32520fde" y="127.504671"/>
    </g>
    <g clip-path="url(#p009e556614)">
     <use style="fill:#0000ff;fill-opacity:0.382381;stroke:#0000ff;stroke-opacity:0.382381;" x="171.432839" xlink:href="#C0_0_1d32520fde" y="122.936288"/>
    </g>
    <g clip-path="url(#p009e556614)">
     <use style="fill:#0000ff;fill-opacity:0.605311;stroke:#0000ff;stroke-opacity:0.605311;" x="323.962958" xlink:href="#C0_0_1d32520fde" y="127.667634"/>
    </g>
    <g clip-path="url(#p009e556614)">
     <use style="fill:#0000ff;fill-opacity:0.573102;stroke:#0000ff;stroke-opacity:0.573102;" x="284.827122" xlink:href="#C0_0_1d32520fde" y="126.984034"/>
    </g>
    <g clip-path="url(#p009e556614)">
     <use style="fill:#0000ff;fill-opacity:0.655526;stroke:#0000ff;stroke-opacity:0.655526;" x="315.49108" xlink:href="#C0_0_1d32520fde" y="128.733359"/>
    </g>
    <g clip-path="url(#p009e556614)">
     <use style="fill:#0000ff;fill-opacity:0.817238;stroke:#0000ff;stroke-opacity:0.817238;" x="262.590424" xlink:href="#C0_0_1d32520fde" y="132.165447"/>
    </g>
    <g clip-path="url(#p009e556614)">
     <use style="fill:#0000ff;fill-opacity:0.676065;stroke:#0000ff;stroke-opacity:0.676065;" x="260.962991" xlink:href="#C0_0_1d32520fde" y="129.169267"/>
    </g>
    <g clip-path="url(#p009e556614)">
     <use style="fill:#0000ff;fill-opacity:0.761476;stroke:#0000ff;stroke-opacity:0.761476;" x="284.824112" xlink:href="#C0_0_1d32520fde" y="130.981978"/>
    </g>
    <g clip-path="url(#p009e556614)">
     <use style="fill:#0000ff;fill-opacity:0.503736;stroke:#0000ff;stroke-opacity:0.503736;" x="220.325438" xlink:href="#C0_0_1d32520fde" y="125.511845"/>
    </g>
    <g clip-path="url(#p009e556614)">
     <use style="fill:#0000ff;fill-opacity:0.501188;stroke:#0000ff;stroke-opacity:0.501188;" x="227.118775" xlink:href="#C0_0_1d32520fde" y="125.457782"/>
    </g>
    <g clip-path="url(#p009e556614)">
     <use style="fill:#0000ff;fill-opacity:0.676065;stroke:#0000ff;stroke-opacity:0.676065;" x="260.962991" xlink:href="#C0_0_1d32520fde" y="129.169267"/>
    </g>
    <g clip-path="url(#p009e556614)">
     <use style="fill:#0000ff;fill-opacity:0.625801;stroke:#0000ff;stroke-opacity:0.625801;" x="269.504542" xlink:href="#C0_0_1d32520fde" y="128.102496"/>
    </g>
    <g clip-path="url(#p009e556614)">
     <use style="fill:#0000ff;fill-opacity:0.595074;stroke:#0000ff;stroke-opacity:0.595074;" x="351.172142" xlink:href="#C0_0_1d32520fde" y="127.450363"/>
    </g>
    <g clip-path="url(#p009e556614)">
     <use style="fill:#0000ff;fill-opacity:0.500149;stroke:#0000ff;stroke-opacity:0.500149;" x="354.417413" xlink:href="#C0_0_1d32520fde" y="125.435716"/>
    </g>
    <g clip-path="url(#p009e556614)">
     <use style="fill:#0000ff;fill-opacity:0.638617;stroke:#0000ff;stroke-opacity:0.638617;" x="235.440888" xlink:href="#C0_0_1d32520fde" y="128.374501"/>
    </g>
    <g clip-path="url(#p009e556614)">
     <use style="fill:#0000ff;fill-opacity:0.711006;stroke:#0000ff;stroke-opacity:0.711006;" x="293.354353" xlink:href="#C0_0_1d32520fde" y="129.910849"/>
    </g>
    <g clip-path="url(#p009e556614)">
     <use style="fill:#0000ff;fill-opacity:0.506283;stroke:#0000ff;stroke-opacity:0.506283;" x="213.53127" xlink:href="#C0_0_1d32520fde" y="125.565916"/>
    </g>
    <g clip-path="url(#p009e556614)">
     <use style="fill:#0000ff;fill-opacity:0.595074;stroke:#0000ff;stroke-opacity:0.595074;" x="351.172142" xlink:href="#C0_0_1d32520fde" y="127.450363"/>
    </g>
    <g clip-path="url(#p009e556614)">
     <use style="fill:#0000ff;fill-opacity:0.82241;stroke:#0000ff;stroke-opacity:0.82241;" x="248.904194" xlink:href="#C0_0_1d32520fde" y="132.275228"/>
    </g>
    <g clip-path="url(#p009e556614)">
     <use style="fill:#0000ff;fill-opacity:0.620677;stroke:#0000ff;stroke-opacity:0.620677;" x="283.124155" xlink:href="#C0_0_1d32520fde" y="127.99374"/>
    </g>
    <g clip-path="url(#p009e556614)">
     <use style="fill:#0000ff;fill-opacity:0.703289;stroke:#0000ff;stroke-opacity:0.703289;" x="313.819774" xlink:href="#C0_0_1d32520fde" y="129.74706"/>
    </g>
    <g clip-path="url(#p009e556614)">
     <use style="fill:#0000ff;fill-opacity:0.824997;stroke:#0000ff;stroke-opacity:0.824997;" x="242.059814" xlink:href="#C0_0_1d32520fde" y="132.330129"/>
    </g>
    <g clip-path="url(#p009e556614)">
     <use style="fill:#0000ff;fill-opacity:0.7316;stroke:#0000ff;stroke-opacity:0.7316;" x="238.742988" xlink:href="#C0_0_1d32520fde" y="130.347915"/>
    </g>
    <g clip-path="url(#p009e556614)">
     <use style="fill:#0000ff;fill-opacity:0.533287;stroke:#0000ff;stroke-opacity:0.533287;" x="266.142652" xlink:href="#C0_0_1d32520fde" y="126.139027"/>
    </g>
    <g clip-path="url(#p009e556614)">
     <use style="fill:#0000ff;fill-opacity:0.799144;stroke:#0000ff;stroke-opacity:0.799144;" x="310.46568" xlink:href="#C0_0_1d32520fde" y="131.781425"/>
    </g>
    <g clip-path="url(#p009e556614)">
     <use style="fill:#0000ff;fill-opacity:0.746006;stroke:#0000ff;stroke-opacity:0.746006;" x="325.79987" xlink:href="#C0_0_1d32520fde" y="130.65367"/>
    </g>
    <g clip-path="url(#p009e556614)">
     <use style="fill:#0000ff;fill-opacity:0.829116;stroke:#0000ff;stroke-opacity:0.829116;" x="356.672395" xlink:href="#C0_0_1d32520fde" y="132.417536"/>
    </g>
    <g clip-path="url(#p009e556614)">
     <use style="fill:#0000ff;fill-opacity:0.533287;stroke:#0000ff;stroke-opacity:0.533287;" x="266.142652" xlink:href="#C0_0_1d32520fde" y="126.139027"/>
    </g>
    <g clip-path="url(#p009e556614)">
     <use style="fill:#0000ff;fill-opacity:0.72645;stroke:#0000ff;stroke-opacity:0.72645;" x="252.400865" xlink:href="#C0_0_1d32520fde" y="130.238608"/>
    </g>
    <g clip-path="url(#p009e556614)">
     <use style="fill:#0000ff;fill-opacity:0.399083;stroke:#0000ff;stroke-opacity:0.399083;" x="250.966343" xlink:href="#C0_0_1d32520fde" y="123.290758"/>
    </g>
    <g clip-path="url(#p009e556614)">
     <use style="fill:#0000ff;fill-opacity:0.882464;stroke:#0000ff;stroke-opacity:0.882464;" x="341.34698" xlink:href="#C0_0_1d32520fde" y="133.549771"/>
    </g>
    <g clip-path="url(#p009e556614)">
     <use style="fill:#0000ff;fill-opacity:0.488456;stroke:#0000ff;stroke-opacity:0.488456;" x="261.073003" xlink:href="#C0_0_1d32520fde" y="125.187562"/>
    </g>
    <g clip-path="url(#p009e556614)">
     <use style="fill:#0000ff;fill-opacity:0.580771;stroke:#0000ff;stroke-opacity:0.580771;" x="264.420032" xlink:href="#C0_0_1d32520fde" y="127.146806"/>
    </g>
    <g clip-path="url(#p009e556614)">
     <use style="fill:#0000ff;fill-opacity:0.734176;stroke:#0000ff;stroke-opacity:0.734176;" x="231.91279" xlink:href="#C0_0_1d32520fde" y="130.402578"/>
    </g>
    <g clip-path="url(#p009e556614)">
     <use style="fill:#0000ff;fill-opacity:0.855006;stroke:#0000ff;stroke-opacity:0.855006;" x="288.246126" xlink:href="#C0_0_1d32520fde" y="132.967023"/>
    </g>
    <g clip-path="url(#p009e556614)">
     <use style="fill:#0000ff;fill-opacity:0.66836;stroke:#0000ff;stroke-opacity:0.66836;" x="281.417301" xlink:href="#C0_0_1d32520fde" y="129.005751"/>
    </g>
    <g clip-path="url(#p009e556614)">
     <use style="fill:#0000ff;stroke:#0000ff;" x="283.10264" xlink:href="#C0_0_1d32520fde" y="136.044293"/>
    </g>
    <g clip-path="url(#p009e556614)">
     <use style="fill:#0000ff;fill-opacity:0.501188;stroke:#0000ff;stroke-opacity:0.501188;" x="227.118775" xlink:href="#C0_0_1d32520fde" y="125.457782"/>
    </g>
    <g clip-path="url(#p009e556614)">
     <use style="fill:#0000ff;fill-opacity:0.570546;stroke:#0000ff;stroke-opacity:0.570546;" x="291.627818" xlink:href="#C0_0_1d32520fde" y="126.92979"/>
    </g>
    <g clip-path="url(#p009e556614)">
     <use style="fill:#0000ff;fill-opacity:0.620677;stroke:#0000ff;stroke-opacity:0.620677;" x="283.124155" xlink:href="#C0_0_1d32520fde" y="127.99374"/>
    </g>
    <g clip-path="url(#p009e556614)">
     <use style="fill:#0000ff;fill-opacity:0.860188;stroke:#0000ff;stroke-opacity:0.860188;" x="274.550744" xlink:href="#C0_0_1d32520fde" y="133.077002"/>
    </g>
    <g clip-path="url(#p009e556614)">
     <use style="fill:#0000ff;fill-opacity:0.774375;stroke:#0000ff;stroke-opacity:0.774375;" x="250.65453" xlink:href="#C0_0_1d32520fde" y="131.255753"/>
    </g>
    <g clip-path="url(#p009e556614)">
     <use style="fill:#0000ff;fill-opacity:0.769214;stroke:#0000ff;stroke-opacity:0.769214;" x="264.324886" xlink:href="#C0_0_1d32520fde" y="131.146223"/>
    </g>
    <g clip-path="url(#p009e556614)">
     <use style="fill:#0000ff;fill-opacity:0.53839;stroke:#0000ff;stroke-opacity:0.53839;" x="252.549453" xlink:href="#C0_0_1d32520fde" y="126.247327"/>
    </g>
    <g clip-path="url(#p009e556614)">
     <use style="fill:#0000ff;fill-opacity:0.546047;stroke:#0000ff;stroke-opacity:0.546047;" x="232.153414" xlink:href="#C0_0_1d32520fde" y="126.409829"/>
    </g>
   </g>
   <g id="text_22">
    <!-- IRIS -->
    <defs>
     <path d="M 9.8125 72.90625 
L 19.671875 72.90625 
L 19.671875 0 
L 9.8125 0 
z
" id="DejaVuSans-73"/>
     <path d="M 44.390625 34.1875 
Q 47.5625 33.109375 50.5625 29.59375 
Q 53.5625 26.078125 56.59375 19.921875 
L 66.609375 0 
L 56 0 
L 46.6875 18.703125 
Q 43.0625 26.03125 39.671875 28.421875 
Q 36.28125 30.8125 30.421875 30.8125 
L 19.671875 30.8125 
L 19.671875 0 
L 9.8125 0 
L 9.8125 72.90625 
L 32.078125 72.90625 
Q 44.578125 72.90625 50.734375 67.671875 
Q 56.890625 62.453125 56.890625 51.90625 
Q 56.890625 45.015625 53.6875 40.46875 
Q 50.484375 35.9375 44.390625 34.1875 
z
M 19.671875 64.796875 
L 19.671875 38.921875 
L 32.078125 38.921875 
Q 39.203125 38.921875 42.84375 42.21875 
Q 46.484375 45.515625 46.484375 51.90625 
Q 46.484375 58.296875 42.84375 61.546875 
Q 39.203125 64.796875 32.078125 64.796875 
z
" id="DejaVuSans-82"/>
     <path d="M 53.515625 70.515625 
L 53.515625 60.890625 
Q 47.90625 63.578125 42.921875 64.890625 
Q 37.9375 66.21875 33.296875 66.21875 
Q 25.25 66.21875 20.875 63.09375 
Q 16.5 59.96875 16.5 54.203125 
Q 16.5 49.359375 19.40625 46.890625 
Q 22.3125 44.4375 30.421875 42.921875 
L 36.375 41.703125 
Q 47.40625 39.59375 52.65625 34.296875 
Q 57.90625 29 57.90625 20.125 
Q 57.90625 9.515625 50.796875 4.046875 
Q 43.703125 -1.421875 29.984375 -1.421875 
Q 24.8125 -1.421875 18.96875 -0.25 
Q 13.140625 0.921875 6.890625 3.21875 
L 6.890625 13.375 
Q 12.890625 10.015625 18.65625 8.296875 
Q 24.421875 6.59375 29.984375 6.59375 
Q 38.421875 6.59375 43.015625 9.90625 
Q 47.609375 13.234375 47.609375 19.390625 
Q 47.609375 24.75 44.3125 27.78125 
Q 41.015625 30.8125 33.5 32.328125 
L 27.484375 33.5 
Q 16.453125 35.6875 11.515625 40.375 
Q 6.59375 45.0625 6.59375 53.421875 
Q 6.59375 63.09375 13.40625 68.65625 
Q 20.21875 74.21875 32.171875 74.21875 
Q 37.3125 74.21875 42.625 73.28125 
Q 47.953125 72.359375 53.515625 70.515625 
z
" id="DejaVuSans-83"/>
    </defs>
    <g transform="translate(204.481875 17.04)scale(0.12 -0.12)">
     <use xlink:href="#DejaVuSans-73"/>
     <use x="29.492188" xlink:href="#DejaVuSans-82"/>
     <use x="98.974609" xlink:href="#DejaVuSans-73"/>
     <use x="128.466797" xlink:href="#DejaVuSans-83"/>
    </g>
   </g>
   <g id="Path3DCollection_2">
    <defs>
     <path d="M 0 2.236068 
C 0.593012 2.236068 1.161816 2.000462 1.581139 1.581139 
C 2.000462 1.161816 2.236068 0.593012 2.236068 0 
C 2.236068 -0.593012 2.000462 -1.161816 1.581139 -1.581139 
C 1.161816 -2.000462 0.593012 -2.236068 0 -2.236068 
C -0.593012 -2.236068 -1.161816 -2.000462 -1.581139 -1.581139 
C -2.000462 -1.161816 -2.236068 -0.593012 -2.236068 0 
C -2.236068 0.593012 -2.000462 1.161816 -1.581139 1.581139 
C -1.161816 2.000462 -0.593012 2.236068 0 2.236068 
z
" id="C1_0_ba5c5b1434"/>
    </defs>
    <g clip-path="url(#p009e556614)">
     <use style="fill:#bfbf00;fill-opacity:0.99158;stroke:#bfbf00;stroke-opacity:0.99158;" x="281.361464" xlink:href="#C1_0_ba5c5b1434" y="141.164548"/>
    </g>
    <g clip-path="url(#p009e556614)">
     <use style="fill:#bfbf00;fill-opacity:0.80054;stroke:#bfbf00;stroke-opacity:0.80054;" x="246.975518" xlink:href="#C1_0_ba5c5b1434" y="137.352313"/>
    </g>
    <g clip-path="url(#p009e556614)">
     <use style="fill:#bfbf00;fill-opacity:0.838391;stroke:#bfbf00;stroke-opacity:0.838391;" x="279.65388" xlink:href="#C1_0_ba5c5b1434" y="138.107634"/>
    </g>
    <g clip-path="url(#p009e556614)">
     <use style="fill:#bfbf00;fill-opacity:0.619391;stroke:#bfbf00;stroke-opacity:0.619391;" x="192.307454" xlink:href="#C1_0_ba5c5b1434" y="133.737446"/>
    </g>
    <g clip-path="url(#p009e556614)">
     <use style="fill:#bfbf00;fill-opacity:0.797758;stroke:#bfbf00;stroke-opacity:0.797758;" x="253.858169" xlink:href="#C1_0_ba5c5b1434" y="137.296792"/>
    </g>
    <g clip-path="url(#p009e556614)">
     <use style="fill:#bfbf00;fill-opacity:0.460493;stroke:#bfbf00;stroke-opacity:0.460493;" x="211.417155" xlink:href="#C1_0_ba5c5b1434" y="130.566609"/>
    </g>
    <g clip-path="url(#p009e556614)">
     <use style="fill:#bfbf00;fill-opacity:0.648644;stroke:#bfbf00;stroke-opacity:0.648644;" x="245.391463" xlink:href="#C1_0_ba5c5b1434" y="134.321202"/>
    </g>
    <g clip-path="url(#p009e556614)">
     <use style="fill:#bfbf00;fill-opacity:0.687369;stroke:#bfbf00;stroke-opacity:0.687369;" x="149.269877" xlink:href="#C1_0_ba5c5b1434" y="135.093967"/>
    </g>
    <g clip-path="url(#p009e556614)">
     <use style="fill:#bfbf00;fill-opacity:0.846754;stroke:#bfbf00;stroke-opacity:0.846754;" x="258.989476" xlink:href="#C1_0_ba5c5b1434" y="138.27452"/>
    </g>
    <g clip-path="url(#p009e556614)">
     <use style="fill:#bfbf00;fill-opacity:0.525241;stroke:#bfbf00;stroke-opacity:0.525241;" x="175.407375" xlink:href="#C1_0_ba5c5b1434" y="131.858651"/>
    </g>
    <g clip-path="url(#p009e556614)">
     <use style="fill:#bfbf00;fill-opacity:0.633196;stroke:#bfbf00;stroke-opacity:0.633196;" x="158.003452" xlink:href="#C1_0_ba5c5b1434" y="134.01292"/>
    </g>
    <g clip-path="url(#p009e556614)">
     <use style="fill:#bfbf00;fill-opacity:0.711168;stroke:#bfbf00;stroke-opacity:0.711168;" x="216.150702" xlink:href="#C1_0_ba5c5b1434" y="135.568878"/>
    </g>
    <g clip-path="url(#p009e556614)">
     <use style="fill:#bfbf00;fill-opacity:0.86349;stroke:#bfbf00;stroke-opacity:0.86349;" x="217.637587" xlink:href="#C1_0_ba5c5b1434" y="138.608479"/>
    </g>
    <g clip-path="url(#p009e556614)">
     <use style="fill:#bfbf00;fill-opacity:0.551619;stroke:#bfbf00;stroke-opacity:0.551619;" x="235.214591" xlink:href="#C1_0_ba5c5b1434" y="132.385036"/>
    </g>
    <g clip-path="url(#p009e556614)">
     <use style="fill:#bfbf00;fill-opacity:0.874653;stroke:#bfbf00;stroke-opacity:0.874653;" x="190.052549" xlink:href="#C1_0_ba5c5b1434" y="138.831257"/>
    </g>
    <g clip-path="url(#p009e556614)">
     <use style="fill:#bfbf00;stroke:#bfbf00;" x="260.626927" xlink:href="#C1_0_ba5c5b1434" y="141.332574"/>
    </g>
    <g clip-path="url(#p009e556614)">
     <use style="fill:#bfbf00;fill-opacity:0.412335;stroke:#bfbf00;stroke-opacity:0.412335;" x="206.381306" xlink:href="#C1_0_ba5c5b1434" y="129.605604"/>
    </g>
    <g clip-path="url(#p009e556614)">
     <use style="fill:#bfbf00;fill-opacity:0.71394;stroke:#bfbf00;stroke-opacity:0.71394;" x="209.278993" xlink:href="#C1_0_ba5c5b1434" y="135.624185"/>
    </g>
    <g clip-path="url(#p009e556614)">
     <use style="fill:#bfbf00;fill-opacity:0.702856;stroke:#bfbf00;stroke-opacity:0.702856;" x="236.760731" xlink:href="#C1_0_ba5c5b1434" y="135.402996"/>
    </g>
    <g clip-path="url(#p009e556614)">
     <use style="fill:#bfbf00;fill-opacity:0.719484;stroke:#bfbf00;stroke-opacity:0.719484;" x="195.533024" xlink:href="#C1_0_ba5c5b1434" y="135.73482"/>
    </g>
    <g clip-path="url(#p009e556614)">
     <use style="fill:#bfbf00;fill-opacity:0.404133;stroke:#bfbf00;stroke-opacity:0.404133;" x="226.855724" xlink:href="#C1_0_ba5c5b1434" y="129.441927"/>
    </g>
    <g clip-path="url(#p009e556614)">
     <use style="fill:#bfbf00;fill-opacity:0.912629;stroke:#bfbf00;stroke-opacity:0.912629;" x="222.736831" xlink:href="#C1_0_ba5c5b1434" y="139.589074"/>
    </g>
    <g clip-path="url(#p009e556614)">
     <use style="fill:#bfbf00;fill-opacity:0.546116;stroke:#bfbf00;stroke-opacity:0.546116;" x="248.904194" xlink:href="#C1_0_ba5c5b1434" y="132.275228"/>
    </g>
    <g clip-path="url(#p009e556614)">
     <use style="fill:#bfbf00;fill-opacity:0.551619;stroke:#bfbf00;stroke-opacity:0.551619;" x="235.214591" xlink:href="#C1_0_ba5c5b1434" y="132.385036"/>
    </g>
    <g clip-path="url(#p009e556614)">
     <use style="fill:#bfbf00;fill-opacity:0.904242;stroke:#bfbf00;stroke-opacity:0.904242;" x="243.438269" xlink:href="#C1_0_ba5c5b1434" y="139.421698"/>
    </g>
    <g clip-path="url(#p009e556614)">
     <use style="fill:#bfbf00;fill-opacity:0.950669;stroke:#bfbf00;stroke-opacity:0.950669;" x="255.476354" xlink:href="#C1_0_ba5c5b1434" y="140.348172"/>
    </g>
    <g clip-path="url(#p009e556614)">
     <use style="fill:#bfbf00;fill-opacity:0.841178;stroke:#bfbf00;stroke-opacity:0.841178;" x="272.7666" xlink:href="#C1_0_ba5c5b1434" y="138.163256"/>
    </g>
    <g clip-path="url(#p009e556614)">
     <use style="fill:#bfbf00;fill-opacity:0.689008;stroke:#bfbf00;stroke-opacity:0.689008;" x="271.093792" xlink:href="#C1_0_ba5c5b1434" y="135.126664"/>
    </g>
    <g clip-path="url(#p009e556614)">
     <use style="fill:#bfbf00;fill-opacity:0.605595;stroke:#bfbf00;stroke-opacity:0.605595;" x="226.590292" xlink:href="#C1_0_ba5c5b1434" y="133.462142"/>
    </g>
    <g clip-path="url(#p009e556614)">
     <use style="fill:#bfbf00;fill-opacity:0.975893;stroke:#bfbf00;stroke-opacity:0.975893;" x="193.291496" xlink:href="#C1_0_ba5c5b1434" y="140.851524"/>
    </g>
    <g clip-path="url(#p009e556614)">
     <use style="fill:#bfbf00;fill-opacity:0.722257;stroke:#bfbf00;stroke-opacity:0.722257;" x="188.658765" xlink:href="#C1_0_ba5c5b1434" y="135.790148"/>
    </g>
    <g clip-path="url(#p009e556614)">
     <use style="fill:#bfbf00;fill-opacity:0.773867;stroke:#bfbf00;stroke-opacity:0.773867;" x="186.828118" xlink:href="#C1_0_ba5c5b1434" y="136.820045"/>
    </g>
    <g clip-path="url(#p009e556614)">
     <use style="fill:#bfbf00;fill-opacity:0.817241;stroke:#bfbf00;stroke-opacity:0.817241;" x="205.661691" xlink:href="#C1_0_ba5c5b1434" y="137.685586"/>
    </g>
    <g clip-path="url(#p009e556614)">
     <use style="fill:#bfbf00;fill-opacity:0.3;stroke:#bfbf00;stroke-opacity:0.3;" x="237.198907" xlink:href="#C1_0_ba5c5b1434" y="127.363928"/>
    </g>
    <g clip-path="url(#p009e556614)">
     <use style="fill:#bfbf00;fill-opacity:0.316331;stroke:#bfbf00;stroke-opacity:0.316331;" x="196.342191" xlink:href="#C1_0_ba5c5b1434" y="127.689811"/>
    </g>
    <g clip-path="url(#p009e556614)">
     <use style="fill:#bfbf00;fill-opacity:0.605595;stroke:#bfbf00;stroke-opacity:0.605595;" x="226.590292" xlink:href="#C1_0_ba5c5b1434" y="133.462142"/>
    </g>
    <g clip-path="url(#p009e556614)">
     <use style="fill:#bfbf00;fill-opacity:0.843966;stroke:#bfbf00;stroke-opacity:0.843966;" x="265.878465" xlink:href="#C1_0_ba5c5b1434" y="138.218884"/>
    </g>
    <g clip-path="url(#p009e556614)">
     <use style="fill:#bfbf00;fill-opacity:0.803323;stroke:#bfbf00;stroke-opacity:0.803323;" x="240.092013" xlink:href="#C1_0_ba5c5b1434" y="137.407842"/>
    </g>
    <g clip-path="url(#p009e556614)">
     <use style="fill:#bfbf00;fill-opacity:0.616631;stroke:#bfbf00;stroke-opacity:0.616631;" x="199.165714" xlink:href="#C1_0_ba5c5b1434" y="133.682372"/>
    </g>
    <g clip-path="url(#p009e556614)">
     <use style="fill:#bfbf00;fill-opacity:0.619391;stroke:#bfbf00;stroke-opacity:0.619391;" x="192.307454" xlink:href="#C1_0_ba5c5b1434" y="133.737446"/>
    </g>
    <g clip-path="url(#p009e556614)">
     <use style="fill:#bfbf00;fill-opacity:0.41507;stroke:#bfbf00;stroke-opacity:0.41507;" x="199.554823" xlink:href="#C1_0_ba5c5b1434" y="129.660176"/>
    </g>
    <g clip-path="url(#p009e556614)">
     <use style="fill:#bfbf00;fill-opacity:0.602837;stroke:#bfbf00;stroke-opacity:0.602837;" x="233.444321" xlink:href="#C1_0_ba5c5b1434" y="133.407102"/>
    </g>
    <g clip-path="url(#p009e556614)">
     <use style="fill:#bfbf00;fill-opacity:0.765531;stroke:#bfbf00;stroke-opacity:0.765531;" x="207.472424" xlink:href="#C1_0_ba5c5b1434" y="136.653699"/>
    </g>
    <g clip-path="url(#p009e556614)">
     <use style="fill:#bfbf00;fill-opacity:0.736125;stroke:#bfbf00;stroke-opacity:0.736125;" x="154.274705" xlink:href="#C1_0_ba5c5b1434" y="136.066891"/>
    </g>
    <g clip-path="url(#p009e556614)">
     <use style="fill:#bfbf00;fill-opacity:0.565382;stroke:#bfbf00;stroke-opacity:0.565382;" x="200.975814" xlink:href="#C1_0_ba5c5b1434" y="132.659676"/>
    </g>
    <g clip-path="url(#p009e556614)">
     <use style="fill:#bfbf00;fill-opacity:0.613872;stroke:#bfbf00;stroke-opacity:0.613872;" x="206.023128" xlink:href="#C1_0_ba5c5b1434" y="133.627304"/>
    </g>
    <g clip-path="url(#p009e556614)">
     <use style="fill:#bfbf00;fill-opacity:0.613872;stroke:#bfbf00;stroke-opacity:0.613872;" x="206.023128" xlink:href="#C1_0_ba5c5b1434" y="133.627304"/>
    </g>
    <g clip-path="url(#p009e556614)">
     <use style="fill:#bfbf00;fill-opacity:0.806106;stroke:#bfbf00;stroke-opacity:0.806106;" x="233.207656" xlink:href="#C1_0_ba5c5b1434" y="137.463377"/>
    </g>
    <g clip-path="url(#p009e556614)">
     <use style="fill:#bfbf00;fill-opacity:0.940611;stroke:#bfbf00;stroke-opacity:0.940611;" x="153.676275" xlink:href="#C1_0_ba5c5b1434" y="140.147445"/>
    </g>
    <g clip-path="url(#p009e556614)">
     <use style="fill:#bfbf00;fill-opacity:0.665233;stroke:#bfbf00;stroke-opacity:0.665233;" x="204.216858" xlink:href="#C1_0_ba5c5b1434" y="134.652223"/>
    </g>
   </g>
   <g id="Path3DCollection_3">
    <defs>
     <path d="M 0 2.236068 
C 0.593012 2.236068 1.161816 2.000462 1.581139 1.581139 
C 2.000462 1.161816 2.236068 0.593012 2.236068 0 
C 2.236068 -0.593012 2.000462 -1.161816 1.581139 -1.581139 
C 1.161816 -2.000462 0.593012 -2.236068 0 -2.236068 
C -0.593012 -2.236068 -1.161816 -2.000462 -1.581139 -1.581139 
C -2.000462 -1.161816 -2.236068 -0.593012 -2.236068 0 
C -2.236068 0.593012 -2.000462 1.161816 -1.581139 1.581139 
C -1.161816 2.000462 -0.593012 2.236068 0 2.236068 
z
" id="C2_0_58091f91e4"/>
    </defs>
    <g clip-path="url(#p009e556614)">
     <use style="fill:#ff0000;fill-opacity:0.629929;stroke:#ff0000;stroke-opacity:0.629929;" x="123.064204" xlink:href="#C2_0_58091f91e4" y="157.080695"/>
    </g>
    <g clip-path="url(#p009e556614)">
     <use style="fill:#ff0000;fill-opacity:0.54972;stroke:#ff0000;stroke-opacity:0.54972;" x="112.900504" xlink:href="#C2_0_58091f91e4" y="155.044693"/>
    </g>
    <g clip-path="url(#p009e556614)">
     <use style="fill:#ff0000;fill-opacity:0.512019;stroke:#ff0000;stroke-opacity:0.512019;" x="100.815166" xlink:href="#C2_0_58091f91e4" y="154.087697"/>
    </g>
    <g clip-path="url(#p009e556614)">
     <use style="fill:#ff0000;fill-opacity:0.388113;stroke:#ff0000;stroke-opacity:0.388113;" x="99.705261" xlink:href="#C2_0_58091f91e4" y="150.942502"/>
    </g>
    <g clip-path="url(#p009e556614)">
     <use style="fill:#ff0000;fill-opacity:0.58978;stroke:#ff0000;stroke-opacity:0.58978;" x="117.976698" xlink:href="#C2_0_58091f91e4" y="156.061561"/>
    </g>
    <g clip-path="url(#p009e556614)">
     <use style="fill:#ff0000;fill-opacity:0.623076;stroke:#ff0000;stroke-opacity:0.623076;" x="144.187607" xlink:href="#C2_0_58091f91e4" y="156.906737"/>
    </g>
    <g clip-path="url(#p009e556614)">
     <use style="fill:#ff0000;fill-opacity:0.430073;stroke:#ff0000;stroke-opacity:0.430073;" x="97.739409" xlink:href="#C2_0_58091f91e4" y="152.007608"/>
    </g>
    <g clip-path="url(#p009e556614)">
     <use style="fill:#ff0000;fill-opacity:0.547446;stroke:#ff0000;stroke-opacity:0.547446;" x="119.927517" xlink:href="#C2_0_58091f91e4" y="154.986957"/>
    </g>
    <g clip-path="url(#p009e556614)">
     <use style="fill:#ff0000;fill-opacity:0.35075;stroke:#ff0000;stroke-opacity:0.35075;" x="87.687882" xlink:href="#C2_0_58091f91e4" y="149.994076"/>
    </g>
    <g clip-path="url(#p009e556614)">
     <use style="fill:#ff0000;fill-opacity:0.50748;stroke:#ff0000;stroke-opacity:0.50748;" x="114.855113" xlink:href="#C2_0_58091f91e4" y="153.972475"/>
    </g>
    <g clip-path="url(#p009e556614)">
     <use style="fill:#ff0000;fill-opacity:0.708201;stroke:#ff0000;stroke-opacity:0.708201;" x="140.330403" xlink:href="#C2_0_58091f91e4" y="159.067538"/>
    </g>
    <g clip-path="url(#p009e556614)">
     <use style="fill:#ff0000;fill-opacity:0.425555;stroke:#ff0000;stroke-opacity:0.425555;" x="111.747753" xlink:href="#C2_0_58091f91e4" y="151.89291"/>
    </g>
    <g clip-path="url(#p009e556614)">
     <use style="fill:#ff0000;fill-opacity:0.509749;stroke:#ff0000;stroke-opacity:0.509749;" x="107.835582" xlink:href="#C2_0_58091f91e4" y="154.030083"/>
    </g>
    <g clip-path="url(#p009e556614)">
     <use style="fill:#ff0000;fill-opacity:0.436853;stroke:#ff0000;stroke-opacity:0.436853;" x="76.720277" xlink:href="#C2_0_58091f91e4" y="152.179708"/>
    </g>
    <g clip-path="url(#p009e556614)">
     <use style="fill:#ff0000;stroke:#ff0000;" x="155.143547" xlink:href="#C2_0_58091f91e4" y="166.474494"/>
    </g>
    <g clip-path="url(#p009e556614)">
     <use style="fill:#ff0000;fill-opacity:0.829713;stroke:#ff0000;stroke-opacity:0.829713;" x="155.752567" xlink:href="#C2_0_58091f91e4" y="162.151973"/>
    </g>
    <g clip-path="url(#p009e556614)">
     <use style="fill:#ff0000;fill-opacity:0.793729;stroke:#ff0000;stroke-opacity:0.793729;" x="136.45495" xlink:href="#C2_0_58091f91e4" y="161.238562"/>
    </g>
    <g clip-path="url(#p009e556614)">
     <use style="fill:#ff0000;fill-opacity:0.629929;stroke:#ff0000;stroke-opacity:0.629929;" x="123.064204" xlink:href="#C2_0_58091f91e4" y="157.080695"/>
    </g>
    <g clip-path="url(#p009e556614)">
     <use style="fill:#ff0000;fill-opacity:0.744016;stroke:#ff0000;stroke-opacity:0.744016;" x="159.586272" xlink:href="#C2_0_58091f91e4" y="159.976642"/>
    </g>
    <g clip-path="url(#p009e556614)">
     <use style="fill:#ff0000;fill-opacity:0.5875;stroke:#ff0000;stroke-opacity:0.5875;" x="125.01121" xlink:href="#C2_0_58091f91e4" y="156.003697"/>
    </g>
    <g clip-path="url(#p009e556614)">
     <use style="fill:#ff0000;fill-opacity:0.623076;stroke:#ff0000;stroke-opacity:0.623076;" x="144.187607" xlink:href="#C2_0_58091f91e4" y="156.906737"/>
    </g>
    <g clip-path="url(#p009e556614)">
     <use style="fill:#ff0000;fill-opacity:0.5875;stroke:#ff0000;stroke-opacity:0.5875;" x="125.01121" xlink:href="#C2_0_58091f91e4" y="156.003697"/>
    </g>
    <g clip-path="url(#p009e556614)">
     <use style="fill:#ff0000;fill-opacity:0.598901;stroke:#ff0000;stroke-opacity:0.598901;" x="89.82975" xlink:href="#C2_0_58091f91e4" y="156.29309"/>
    </g>
    <g clip-path="url(#p009e556614)">
     <use style="fill:#ff0000;fill-opacity:0.502942;stroke:#ff0000;stroke-opacity:0.502942;" x="128.891516" xlink:href="#C2_0_58091f91e4" y="153.857283"/>
    </g>
    <g clip-path="url(#p009e556614)">
     <use style="fill:#ff0000;fill-opacity:0.3;stroke:#ff0000;stroke-opacity:0.3;" x="117.581776" xlink:href="#C2_0_58091f91e4" y="148.705852"/>
    </g>
    <g clip-path="url(#p009e556614)">
     <use style="fill:#ff0000;fill-opacity:0.505211;stroke:#ff0000;stroke-opacity:0.505211;" x="121.873757" xlink:href="#C2_0_58091f91e4" y="153.914875"/>
    </g>
    <g clip-path="url(#p009e556614)">
     <use style="fill:#ff0000;fill-opacity:0.505211;stroke:#ff0000;stroke-opacity:0.505211;" x="121.873757" xlink:href="#C2_0_58091f91e4" y="153.914875"/>
    </g>
    <g clip-path="url(#p009e556614)">
     <use style="fill:#ff0000;fill-opacity:0.627644;stroke:#ff0000;stroke-opacity:0.627644;" x="130.10623" xlink:href="#C2_0_58091f91e4" y="157.022702"/>
    </g>
    <g clip-path="url(#p009e556614)">
     <use style="fill:#ff0000;fill-opacity:0.670168;stroke:#ff0000;stroke-opacity:0.670168;" x="128.163058" xlink:href="#C2_0_58091f91e4" y="158.102102"/>
    </g>
    <g clip-path="url(#p009e556614)">
     <use style="fill:#ff0000;fill-opacity:0.385859;stroke:#ff0000;stroke-opacity:0.385859;" x="106.701558" xlink:href="#C2_0_58091f91e4" y="150.885284"/>
    </g>
    <g clip-path="url(#p009e556614)">
     <use style="fill:#ff0000;fill-opacity:0.425555;stroke:#ff0000;stroke-opacity:0.425555;" x="111.747753" xlink:href="#C2_0_58091f91e4" y="151.89291"/>
    </g>
    <g clip-path="url(#p009e556614)">
     <use style="fill:#ff0000;fill-opacity:0.708201;stroke:#ff0000;stroke-opacity:0.708201;" x="140.330403" xlink:href="#C2_0_58091f91e4" y="159.067538"/>
    </g>
    <g clip-path="url(#p009e556614)">
     <use style="fill:#ff0000;fill-opacity:0.627644;stroke:#ff0000;stroke-opacity:0.627644;" x="130.10623" xlink:href="#C2_0_58091f91e4" y="157.022702"/>
    </g>
    <g clip-path="url(#p009e556614)">
     <use style="fill:#ff0000;fill-opacity:0.791424;stroke:#ff0000;stroke-opacity:0.791424;" x="143.528095" xlink:href="#C2_0_58091f91e4" y="161.180041"/>
    </g>
    <g clip-path="url(#p009e556614)">
     <use style="fill:#ff0000;fill-opacity:0.50748;stroke:#ff0000;stroke-opacity:0.50748;" x="114.855113" xlink:href="#C2_0_58091f91e4" y="153.972475"/>
    </g>
    <g clip-path="url(#p009e556614)">
     <use style="fill:#ff0000;fill-opacity:0.674748;stroke:#ff0000;stroke-opacity:0.674748;" x="114.061263" xlink:href="#C2_0_58091f91e4" y="158.218369"/>
    </g>
    <g clip-path="url(#p009e556614)">
     <use style="fill:#ff0000;fill-opacity:0.834334;stroke:#ff0000;stroke-opacity:0.834334;" x="141.591984" xlink:href="#C2_0_58091f91e4" y="162.26927"/>
    </g>
    <g clip-path="url(#p009e556614)">
     <use style="fill:#ff0000;fill-opacity:0.54972;stroke:#ff0000;stroke-opacity:0.54972;" x="112.900504" xlink:href="#C2_0_58091f91e4" y="155.044693"/>
    </g>
    <g clip-path="url(#p009e556614)">
     <use style="fill:#ff0000;fill-opacity:0.392622;stroke:#ff0000;stroke-opacity:0.392622;" x="85.710025" xlink:href="#C2_0_58091f91e4" y="151.056961"/>
    </g>
    <g clip-path="url(#p009e556614)">
     <use style="fill:#ff0000;fill-opacity:0.5875;stroke:#ff0000;stroke-opacity:0.5875;" x="125.01121" xlink:href="#C2_0_58091f91e4" y="156.003697"/>
    </g>
    <g clip-path="url(#p009e556614)">
     <use style="fill:#ff0000;fill-opacity:0.632214;stroke:#ff0000;stroke-opacity:0.632214;" x="116.021286" xlink:href="#C2_0_58091f91e4" y="157.138695"/>
    </g>
    <g clip-path="url(#p009e556614)">
     <use style="fill:#ff0000;fill-opacity:0.432333;stroke:#ff0000;stroke-opacity:0.432333;" x="90.733914" xlink:href="#C2_0_58091f91e4" y="152.064968"/>
    </g>
    <g clip-path="url(#p009e556614)">
     <use style="fill:#ff0000;fill-opacity:0.392622;stroke:#ff0000;stroke-opacity:0.392622;" x="85.710025" xlink:href="#C2_0_58091f91e4" y="151.056961"/>
    </g>
    <g clip-path="url(#p009e556614)">
     <use style="fill:#ff0000;fill-opacity:0.505211;stroke:#ff0000;stroke-opacity:0.505211;" x="121.873757" xlink:href="#C2_0_58091f91e4" y="153.914875"/>
    </g>
    <g clip-path="url(#p009e556614)">
     <use style="fill:#ff0000;fill-opacity:0.418779;stroke:#ff0000;stroke-opacity:0.418779;" x="132.753653" xlink:href="#C2_0_58091f91e4" y="151.720918"/>
    </g>
    <g clip-path="url(#p009e556614)">
     <use style="fill:#ff0000;fill-opacity:0.509749;stroke:#ff0000;stroke-opacity:0.509749;" x="107.835582" xlink:href="#C2_0_58091f91e4" y="154.030083"/>
    </g>
    <g clip-path="url(#p009e556614)">
     <use style="fill:#ff0000;fill-opacity:0.545171;stroke:#ff0000;stroke-opacity:0.545171;" x="126.953642" xlink:href="#C2_0_58091f91e4" y="154.929229"/>
    </g>
    <g clip-path="url(#p009e556614)">
     <use style="fill:#ff0000;fill-opacity:0.430073;stroke:#ff0000;stroke-opacity:0.430073;" x="97.739409" xlink:href="#C2_0_58091f91e4" y="152.007608"/>
    </g>
    <g clip-path="url(#p009e556614)">
     <use style="fill:#ff0000;fill-opacity:0.667878;stroke:#ff0000;stroke-opacity:0.667878;" x="135.212615" xlink:href="#C2_0_58091f91e4" y="158.043979"/>
    </g>
    <g clip-path="url(#p009e556614)">
     <use style="fill:#ff0000;fill-opacity:0.58978;stroke:#ff0000;stroke-opacity:0.58978;" x="117.976698" xlink:href="#C2_0_58091f91e4" y="156.061561"/>
    </g>
   </g>
   <g id="legend_1">
    <g id="patch_6">
     <path d="M 344.204687 52.034375 
L 425 52.034375 
Q 427 52.034375 427 50.034375 
L 427 7 
Q 427 5 425 5 
L 344.204687 5 
Q 342.204687 5 342.204687 7 
L 342.204687 50.034375 
Q 342.204687 52.034375 344.204687 52.034375 
z
" style="fill:#ffffff;opacity:0.8;stroke:#cccccc;stroke-linejoin:miter;"/>
    </g>
    <g id="Path3DCollection_4">
     <defs>
      <path d="M 0 2.236068 
C 0.593012 2.236068 1.161816 2.000462 1.581139 1.581139 
C 2.000462 1.161816 2.236068 0.593012 2.236068 0 
C 2.236068 -0.593012 2.000462 -1.161816 1.581139 -1.581139 
C 1.161816 -2.000462 0.593012 -2.236068 0 -2.236068 
C -0.593012 -2.236068 -1.161816 -2.000462 -1.581139 -1.581139 
C -2.000462 -1.161816 -2.236068 -0.593012 -2.236068 0 
C -2.236068 0.593012 -2.000462 1.161816 -1.581139 1.581139 
C -1.161816 2.000462 -0.593012 2.236068 0 2.236068 
z
" id="m7c845b758a" style="stroke:#ff0000;"/>
     </defs>
     <g>
      <use style="fill:#ff0000;stroke:#ff0000;" x="356.204687" xlink:href="#m7c845b758a" y="13.973437"/>
     </g>
    </g>
    <g id="text_23">
     <!-- setosa -->
     <defs>
      <path d="M 44.28125 53.078125 
L 44.28125 44.578125 
Q 40.484375 46.53125 36.375 47.5 
Q 32.28125 48.484375 27.875 48.484375 
Q 21.1875 48.484375 17.84375 46.4375 
Q 14.5 44.390625 14.5 40.28125 
Q 14.5 37.15625 16.890625 35.375 
Q 19.28125 33.59375 26.515625 31.984375 
L 29.59375 31.296875 
Q 39.15625 29.25 43.1875 25.515625 
Q 47.21875 21.78125 47.21875 15.09375 
Q 47.21875 7.46875 41.1875 3.015625 
Q 35.15625 -1.421875 24.609375 -1.421875 
Q 20.21875 -1.421875 15.453125 -0.5625 
Q 10.6875 0.296875 5.421875 2 
L 5.421875 11.28125 
Q 10.40625 8.6875 15.234375 7.390625 
Q 20.0625 6.109375 24.8125 6.109375 
Q 31.15625 6.109375 34.5625 8.28125 
Q 37.984375 10.453125 37.984375 14.40625 
Q 37.984375 18.0625 35.515625 20.015625 
Q 33.0625 21.96875 24.703125 23.78125 
L 21.578125 24.515625 
Q 13.234375 26.265625 9.515625 29.90625 
Q 5.8125 33.546875 5.8125 39.890625 
Q 5.8125 47.609375 11.28125 51.796875 
Q 16.75 56 26.8125 56 
Q 31.78125 56 36.171875 55.265625 
Q 40.578125 54.546875 44.28125 53.078125 
z
" id="DejaVuSans-115"/>
      <path d="M 30.609375 48.390625 
Q 23.390625 48.390625 19.1875 42.75 
Q 14.984375 37.109375 14.984375 27.296875 
Q 14.984375 17.484375 19.15625 11.84375 
Q 23.34375 6.203125 30.609375 6.203125 
Q 37.796875 6.203125 41.984375 11.859375 
Q 46.1875 17.53125 46.1875 27.296875 
Q 46.1875 37.015625 41.984375 42.703125 
Q 37.796875 48.390625 30.609375 48.390625 
z
M 30.609375 56 
Q 42.328125 56 49.015625 48.375 
Q 55.71875 40.765625 55.71875 27.296875 
Q 55.71875 13.875 49.015625 6.21875 
Q 42.328125 -1.421875 30.609375 -1.421875 
Q 18.84375 -1.421875 12.171875 6.21875 
Q 5.515625 13.875 5.515625 27.296875 
Q 5.515625 40.765625 12.171875 48.375 
Q 18.84375 56 30.609375 56 
z
" id="DejaVuSans-111"/>
     </defs>
     <g transform="translate(374.204687 16.598437)scale(0.1 -0.1)">
      <use xlink:href="#DejaVuSans-115"/>
      <use x="52.099609" xlink:href="#DejaVuSans-101"/>
      <use x="113.623047" xlink:href="#DejaVuSans-116"/>
      <use x="152.832031" xlink:href="#DejaVuSans-111"/>
      <use x="214.013672" xlink:href="#DejaVuSans-115"/>
      <use x="266.113281" xlink:href="#DejaVuSans-97"/>
     </g>
    </g>
    <g id="Path3DCollection_5">
     <defs>
      <path d="M 0 2.236068 
C 0.593012 2.236068 1.161816 2.000462 1.581139 1.581139 
C 2.000462 1.161816 2.236068 0.593012 2.236068 0 
C 2.236068 -0.593012 2.000462 -1.161816 1.581139 -1.581139 
C 1.161816 -2.000462 0.593012 -2.236068 0 -2.236068 
C -0.593012 -2.236068 -1.161816 -2.000462 -1.581139 -1.581139 
C -2.000462 -1.161816 -2.236068 -0.593012 -2.236068 0 
C -2.236068 0.593012 -2.000462 1.161816 -1.581139 1.581139 
C -1.161816 2.000462 -0.593012 2.236068 0 2.236068 
z
" id="m0190fd1cc2" style="stroke:#bfbf00;"/>
     </defs>
     <g>
      <use style="fill:#bfbf00;stroke:#bfbf00;" x="356.204687" xlink:href="#m0190fd1cc2" y="28.651563"/>
     </g>
    </g>
    <g id="text_24">
     <!-- versicolor -->
     <defs>
      <path d="M 2.984375 54.6875 
L 12.5 54.6875 
L 29.59375 8.796875 
L 46.6875 54.6875 
L 56.203125 54.6875 
L 35.6875 0 
L 23.484375 0 
z
" id="DejaVuSans-118"/>
      <path d="M 41.109375 46.296875 
Q 39.59375 47.171875 37.8125 47.578125 
Q 36.03125 48 33.890625 48 
Q 26.265625 48 22.1875 43.046875 
Q 18.109375 38.09375 18.109375 28.8125 
L 18.109375 0 
L 9.078125 0 
L 9.078125 54.6875 
L 18.109375 54.6875 
L 18.109375 46.1875 
Q 20.953125 51.171875 25.484375 53.578125 
Q 30.03125 56 36.53125 56 
Q 37.453125 56 38.578125 55.875 
Q 39.703125 55.765625 41.0625 55.515625 
z
" id="DejaVuSans-114"/>
      <path d="M 9.421875 54.6875 
L 18.40625 54.6875 
L 18.40625 0 
L 9.421875 0 
z
M 9.421875 75.984375 
L 18.40625 75.984375 
L 18.40625 64.59375 
L 9.421875 64.59375 
z
" id="DejaVuSans-105"/>
     </defs>
     <g transform="translate(374.204687 31.276563)scale(0.1 -0.1)">
      <use xlink:href="#DejaVuSans-118"/>
      <use x="59.179688" xlink:href="#DejaVuSans-101"/>
      <use x="120.703125" xlink:href="#DejaVuSans-114"/>
      <use x="161.816406" xlink:href="#DejaVuSans-115"/>
      <use x="213.916016" xlink:href="#DejaVuSans-105"/>
      <use x="241.699219" xlink:href="#DejaVuSans-99"/>
      <use x="296.679688" xlink:href="#DejaVuSans-111"/>
      <use x="357.861328" xlink:href="#DejaVuSans-108"/>
      <use x="385.644531" xlink:href="#DejaVuSans-111"/>
      <use x="446.826172" xlink:href="#DejaVuSans-114"/>
     </g>
    </g>
    <g id="Path3DCollection_6">
     <defs>
      <path d="M 0 2.236068 
C 0.593012 2.236068 1.161816 2.000462 1.581139 1.581139 
C 2.000462 1.161816 2.236068 0.593012 2.236068 0 
C 2.236068 -0.593012 2.000462 -1.161816 1.581139 -1.581139 
C 1.161816 -2.000462 0.593012 -2.236068 0 -2.236068 
C -0.593012 -2.236068 -1.161816 -2.000462 -1.581139 -1.581139 
C -2.000462 -1.161816 -2.236068 -0.593012 -2.236068 0 
C -2.236068 0.593012 -2.000462 1.161816 -1.581139 1.581139 
C -1.161816 2.000462 -0.593012 2.236068 0 2.236068 
z
" id="m853049d1e5" style="stroke:#0000ff;"/>
     </defs>
     <g>
      <use style="fill:#0000ff;stroke:#0000ff;" x="356.204687" xlink:href="#m853049d1e5" y="43.329687"/>
     </g>
    </g>
    <g id="text_25">
     <!-- virginica -->
     <g transform="translate(374.204687 45.954687)scale(0.1 -0.1)">
      <use xlink:href="#DejaVuSans-118"/>
      <use x="59.179688" xlink:href="#DejaVuSans-105"/>
      <use x="86.962891" xlink:href="#DejaVuSans-114"/>
      <use x="128.060547" xlink:href="#DejaVuSans-103"/>
      <use x="191.537109" xlink:href="#DejaVuSans-105"/>
      <use x="219.320312" xlink:href="#DejaVuSans-110"/>
      <use x="282.699219" xlink:href="#DejaVuSans-105"/>
      <use x="310.482422" xlink:href="#DejaVuSans-99"/>
      <use x="365.462891" xlink:href="#DejaVuSans-97"/>
     </g>
    </g>
   </g>
  </g>
 </g>
 <defs>
  <clipPath id="p009e556614">
   <rect height="288" width="432" x="0" y="0"/>
  </clipPath>
 </defs>
</svg>
